<svg width="24" height="14" viewBox="0 0 24 14" fill="none" xmlns="http://www.w3.org/2000/svg">
<path d="M7.00143 1.00039C6.87067 1.00556 6.74713 1.06171 6.65726 1.15684L1.15051 6.66359C1.13695 6.67336 1.1239 6.6838 1.1114 6.69488C1.03303 6.79176 0.993612 6.91439 1.00084 7.03879C1.00808 7.16319 1.06144 7.28042 1.15051 7.36757L6.64943 12.8743C6.69531 12.9226 6.75035 12.9612 6.81133 12.9879C6.87231 13.0146 6.938 13.0289 7.00456 13.0299C7.07113 13.0309 7.13723 13.0187 7.199 12.9938C7.26076 12.969 7.31696 12.9321 7.36429 12.8853C7.41162 12.8385 7.44915 12.7827 7.47466 12.7212C7.50018 12.6597 7.51317 12.5937 7.51289 12.5272C7.51261 12.4606 7.49905 12.3947 7.47301 12.3335C7.44697 12.2722 7.40897 12.2167 7.36124 12.1703L2.7071 7.51619H22.5283C22.5946 7.51713 22.6605 7.50488 22.722 7.48014C22.7836 7.4554 22.8396 7.41868 22.8869 7.3721C22.9341 7.32552 22.9716 7.27001 22.9972 7.20881C23.0228 7.14761 23.036 7.08192 23.036 7.01558C23.036 6.94924 23.0228 6.88355 22.9972 6.82235C22.9716 6.76115 22.9341 6.70564 22.8869 6.65906C22.8396 6.61248 22.7836 6.57576 22.722 6.55102C22.6605 6.52628 22.5946 6.51403 22.5283 6.51497H2.7071L7.36907 1.86082C7.44205 1.79035 7.49191 1.69936 7.51202 1.59991C7.53213 1.50046 7.52155 1.39725 7.48169 1.30395C7.44182 1.21065 7.37455 1.13166 7.28879 1.07745C7.20302 1.02324 7.10281 0.996369 7.00143 1.00039Z" fill="black" stroke="black" stroke-width="0.5"/>
</svg>
