<svg width="21" height="19" viewBox="0 0 21 19" fill="none" xmlns="http://www.w3.org/2000/svg">
<path d="M7.38996 3.82419C10.1225 4.04279 12.6364 4.56744 12.8769 4.87348C12.7239 5.15767 11.2155 5.44185 10.516 5.57301C9.05134 5.8572 8.15507 6.01022 8.15507 6.68789C8.15507 7.38742 9.20436 7.64975 10.6253 7.99951C11.1281 8.13067 11.8276 8.30556 12.1774 8.45858C11.6964 8.80835 10.2755 9.39858 9.02948 9.81392C8.81088 9.8795 8.67972 10.12 8.76716 10.3386C8.83274 10.5135 8.98576 10.6228 9.16064 10.6228C9.20437 10.6228 9.24809 10.6228 9.29181 10.6009C13.1392 9.35485 13.1392 8.63346 13.1392 8.393C13.1392 7.75905 12.2648 7.51859 10.822 7.16882C10.3411 7.05952 9.64157 6.86277 9.22623 6.70975C9.59785 6.60045 10.2099 6.49115 10.6471 6.40371C12.2867 6.09766 13.7076 5.83534 13.7076 4.89534C13.7076 3.69302 10.2974 3.19024 7.43368 2.97163C7.19321 2.94977 6.99647 3.12465 6.97461 3.36512C6.97461 3.60558 7.14949 3.82419 7.38996 3.82419Z" fill="#827E7E"/>
<path d="M19.7836 12.0451H16.5701V0.983716C16.5701 0.437207 16.1548 0 15.6083 0H1.94557C1.39906 0 0.961855 0.437207 0.961855 0.983716V3.25719H0.568369C0.262324 3.25719 0 3.51952 0 3.82556C0 4.13161 0.262324 4.39393 0.568369 4.39393H0.961855V6.90787H0.568369C0.262324 6.90787 0 7.17019 0 7.47624C0 7.78228 0.262324 8.04461 0.568369 8.04461H0.961855V10.5585H0.568369C0.262324 10.5585 0 10.8209 0 11.1269C0 11.433 0.262324 11.6953 0.568369 11.6953H0.961855V14.2092H0.568369C0.262324 14.2092 0 14.4716 0 14.7776C0 15.0836 0.262324 15.346 0.568369 15.346H0.961855V17.6413C0.961855 18.1659 1.39906 18.6032 1.94557 18.6032H15.6083C16.1548 18.6032 16.5701 18.1659 16.5701 17.6413V16.0018H19.7836C20.3301 16.0018 20.7673 15.5646 20.7673 15.0181V13.0725C20.7673 12.4823 20.3301 12.0451 19.7836 12.0451ZM9.33437 14.8213L8.02275 13.9906L9.29065 13.1599H9.94646V14.7995H9.33437V14.8213ZM11.0832 13.1818H17.4446V14.8213H11.0832V13.1818ZM2.09859 15.3241H2.51394C2.81999 15.3241 3.08231 15.0618 3.08231 14.7557C3.08231 14.4497 2.81999 14.1874 2.51394 14.1874H2.09859V11.6734H2.51394C2.81999 11.6734 3.08231 11.4111 3.08231 11.1051C3.08231 10.799 2.81999 10.5367 2.51394 10.5367H2.09859V8.04461H2.51394C2.81999 8.04461 3.08231 7.78228 3.08231 7.47624C3.08231 7.17019 2.81999 6.90787 2.51394 6.90787H2.09859V4.39393H2.51394C2.81999 4.39393 3.08231 4.13161 3.08231 3.82556C3.08231 3.51952 2.81999 3.25719 2.51394 3.25719H2.09859V1.13674H4.00044V17.4446H2.09859V15.3241ZM15.4334 17.4446H5.13718V1.13674H15.4334V12.0451H9.29065C9.11577 12.0451 8.91902 12.0888 8.766 12.1981L7.21392 13.1599C6.92973 13.3348 6.75485 13.6627 6.75485 13.9906C6.75485 14.3404 6.92973 14.6464 7.21392 14.8213L8.766 15.7832C8.91902 15.8925 9.09391 15.9362 9.29065 15.9362H15.4334V17.4446ZM19.6306 14.8213H18.5594V13.1818H19.6306V14.8213Z" fill="#827E7E"/>
</svg>
