<svg width="33" height="33" viewBox="0 0 33 33" fill="none" xmlns="http://www.w3.org/2000/svg">
<path d="M28.1633 3.70727V1.82972C28.1633 1.12564 27.6939 0.65625 26.9898 0.65625C26.2857 0.65625 25.8163 1.12564 25.8163 1.82972V4.17666H7.04082V1.82972C7.04082 1.12564 6.57143 0.65625 5.86735 0.65625C5.16327 0.65625 4.69388 1.12564 4.69388 1.82972V3.70727C1.9949 4.294 0 6.75829 0 9.57462V25.7685C0 29.0542 2.69898 32.3399 5.98469 32.3399H26.8724C30.1582 32.3399 32.8571 29.0542 32.8571 25.7685V9.57462C32.8571 6.75829 30.8622 4.294 28.1633 3.70727ZM4.69388 6.17156V7.69707C4.69388 8.40115 5.16327 8.87053 5.86735 8.87053C6.57143 8.87053 7.04082 8.40115 7.04082 7.69707V6.5236H25.8163V7.69707C25.8163 8.40115 26.2857 8.87053 26.9898 8.87053C27.6939 8.87053 28.1633 8.40115 28.1633 7.69707V6.17156C29.5714 6.75829 30.5102 8.04911 30.5102 9.57462V11.2175H2.34694V9.57462C2.34694 8.04911 3.28571 6.75829 4.69388 6.17156ZM26.8724 29.993H5.98469C3.9898 29.993 2.34694 27.7634 2.34694 25.7685V13.5644H30.5102V25.7685C30.5102 27.7634 28.8673 29.993 26.8724 29.993Z" fill="#737171"/>
<path d="M22.5307 16.2622L16.4287 23.4204L13.7297 19.9C13.3777 19.4306 12.5562 19.3132 12.0868 19.6653C11.6175 20.0173 11.5001 20.8387 11.8522 21.3081L15.3726 26.002C15.6073 26.2367 15.9593 26.4714 16.3113 26.4714C16.6634 26.4714 17.0154 26.354 17.2501 26.1193L24.2909 17.9051C24.7603 17.4357 24.643 16.7316 24.1736 16.2622C23.7042 15.7928 23.0001 15.7928 22.5307 16.2622Z" fill="#737171"/>
</svg>
