<svg width="18" height="19" viewBox="0 0 18 19" fill="none" xmlns="http://www.w3.org/2000/svg">
    <path d="M17.131 9.2475C17.2871 9.25354 17.4374 9.19168 17.5469 9.0757C17.6564 8.95943 17.7155 8.79992 17.7085 8.63581C17.6608 7.48341 17.426 6.38116 17.0106 5.35935C16.9488 5.20786 16.83 5.09074 16.6825 5.03661C16.5345 4.98249 16.3729 4.99651 16.2357 5.07499C15.6322 5.42006 14.7884 5.1675 14.2733 4.4859C13.7603 3.80691 13.7126 2.88334 14.1621 2.33751C14.2641 2.21351 14.3123 2.04999 14.2944 1.88647C14.2771 1.72321 14.1957 1.57514 14.0699 1.47866C13.2023 0.811119 12.2393 0.320818 11.2074 0.021265C11.0583 -0.0225586 10.8967 0.0029408 10.7654 0.0899992C10.6337 0.177352 10.5426 0.319089 10.5144 0.480916C10.3902 1.19284 9.67711 1.72979 8.85452 1.72979C8.03194 1.72979 7.31832 1.19313 7.19468 0.48121C7.16702 0.319383 7.07593 0.177646 6.94414 0.0902935C6.81183 0.00294078 6.65079 -0.0231105 6.50169 0.021265C5.46977 0.320818 4.50673 0.811119 3.6391 1.47866C3.5133 1.57514 3.43196 1.72321 3.41461 1.88647C3.39671 2.0497 3.44499 2.21322 3.54692 2.33722C3.99592 2.88334 3.94872 3.8072 3.43576 4.4859C2.92172 5.16779 2.07687 5.42036 1.47278 5.07499C1.33559 4.99651 1.17346 4.98219 1.02597 5.03691C0.87847 5.09104 0.759191 5.20816 0.697914 5.35964C0.283085 6.38171 0.0482896 7.48429 0.000564071 8.63581C-0.00647283 8.79992 0.0526093 8.95943 0.162169 9.0757C0.272251 9.19198 0.42135 9.25438 0.578078 9.2475C1.28299 9.22892 1.91474 9.83344 2.09801 10.6789C2.28129 11.5291 1.9424 12.3839 1.30957 12.6677C1.16587 12.7322 1.05418 12.8576 1.00266 13.0131C0.950581 13.1689 0.96361 13.3404 1.03736 13.4856C1.53949 14.4699 2.2081 15.3514 3.02528 16.1054C3.14293 16.2139 3.29857 16.2658 3.45258 16.2466C3.60712 16.2285 3.74754 16.1424 3.8392 16.0095C4.24319 15.4259 5.10647 15.2689 5.84771 15.6455C6.58899 16.0229 7.01141 16.8337 6.82974 17.5319C6.78797 17.6905 6.81183 17.8604 6.89481 17.9995C6.97776 18.139 7.11226 18.2352 7.26572 18.2644C7.82097 18.3707 8.34048 18.4225 8.85452 18.4225C9.36856 18.4225 9.88808 18.3707 10.4433 18.2644C10.5968 18.2352 10.7313 18.139 10.8142 17.9995C10.8972 17.8604 10.9211 17.6905 10.8793 17.5319C10.6976 16.8337 11.1201 16.0229 11.8613 15.6455C12.6021 15.2689 13.4659 15.4259 13.8699 16.0098C13.962 16.1426 14.1019 16.2285 14.257 16.2466C14.4105 16.2652 14.5661 16.2139 14.6838 16.1054C15.5015 15.3508 16.1701 14.4693 16.6711 13.4853C16.7449 13.3402 16.7579 13.1686 16.7059 13.0131C16.6543 12.8576 16.5426 12.7322 16.3989 12.6677C15.7666 12.3839 15.4278 11.5291 15.611 10.6789C15.7938 9.83318 16.4445 9.23006 17.131 9.2475ZM15.4278 13.41C15.1192 13.9261 14.7543 14.4061 14.3367 14.8445C13.557 14.1896 12.4041 14.0675 11.3798 14.5888C10.3539 15.1105 9.72431 16.1406 9.72539 17.1934C9.12889 17.2684 8.58015 17.2684 7.98365 17.1934C7.98473 16.1406 7.35517 15.1105 6.32925 14.5888C5.30601 14.0681 4.15098 14.1896 3.37232 14.8445C2.95478 14.4061 2.58983 13.9261 2.28129 13.41C3.06322 12.7554 3.43412 11.5933 3.18034 10.4179C2.92767 9.24839 2.11916 8.37122 1.1496 8.13609C1.21304 7.5155 1.33994 6.9147 1.52865 6.34021C2.50309 6.57791 3.59301 6.1598 4.30447 5.21732C5.01265 4.27885 5.15743 3.06404 4.72633 2.11611C5.22031 1.78709 5.74522 1.51988 6.29563 1.31713C6.72725 2.26447 7.71688 2.9028 8.85452 2.9028C9.99164 2.9028 10.9812 2.26447 11.4134 1.31684C11.9638 1.51962 12.4887 1.78709 12.9827 2.11611C12.5511 3.06375 12.6959 4.27855 13.4046 5.21732C14.116 6.15951 15.207 6.57647 16.1804 6.34021C16.3691 6.9144 16.496 7.5152 16.5594 8.13609C15.5899 8.37147 14.7814 9.24839 14.5287 10.4179V10.4182C14.2749 11.5933 14.6458 12.7554 15.4278 13.41Z" fill="white"/>
    <circle cx="9" cy="9" r="3" stroke="white" stroke-width="1" fill="none" />
</svg>
