<svg width="16" height="16" viewBox="0 0 16 16" fill="none" xmlns="http://www.w3.org/2000/svg">
<path d="M1.9952 5.08984C1.89183 5.08984 1.79271 5.1309 1.71962 5.20399C1.64653 5.27708 1.60547 5.37621 1.60547 5.47957C1.60547 5.58293 1.64653 5.68206 1.71962 5.75515C1.79271 5.82824 1.89183 5.8693 1.9952 5.8693H10.9262C11.0296 5.8693 11.1287 5.82824 11.2018 5.75515C11.2749 5.68206 11.3159 5.58293 11.3159 5.47957C11.3159 5.37621 11.2749 5.27708 11.2018 5.20399C11.1287 5.1309 11.0296 5.08984 10.9262 5.08984H1.9952Z" fill="#333333"/>
<path d="M6.91221 12.3294H3.81154V10.4182C3.81154 10.1205 3.69328 9.83503 3.48279 9.62454C3.27229 9.41404 2.9868 9.29579 2.68912 9.29579H0.779456V2.67042C0.779456 2.57946 0.815589 2.49223 0.879907 2.42791C0.944224 2.36359 1.03146 2.32746 1.12242 2.32746H2.46308V2.91673C2.46349 3.13077 2.5487 3.33592 2.70005 3.48727C2.8514 3.63862 3.05655 3.72383 3.27059 3.72424H4.32598C4.54002 3.72383 4.74517 3.63862 4.89652 3.48727C5.04787 3.33592 5.13308 3.13077 5.13349 2.91673V2.32746H7.78364V2.91673C7.78405 3.13077 7.86926 3.33592 8.02061 3.48727C8.17196 3.63862 8.37712 3.72383 8.59116 3.72424H9.64654C9.86058 3.72383 10.0657 3.63862 10.2171 3.48727C10.3684 3.33592 10.4536 3.13077 10.4541 2.91673V2.32746H11.7947C11.8857 2.32746 11.9729 2.36359 12.0372 2.42791C12.1015 2.49223 12.1377 2.57946 12.1377 2.67042V6.91377C12.1377 7.01714 12.1787 7.11626 12.2518 7.18935C12.3249 7.26244 12.424 7.3035 12.5274 7.3035C12.6308 7.3035 12.7299 7.26244 12.803 7.18935C12.8761 7.11626 12.9171 7.01714 12.9171 6.91377V2.67042C12.9171 2.37274 12.7989 2.08725 12.5884 1.87675C12.3779 1.66626 12.0924 1.548 11.7947 1.548H10.4541V0.807522C10.4536 0.594288 10.3691 0.389835 10.2187 0.238618C10.0684 0.0874018 9.86444 0.00164905 9.65122 6.01366e-06H8.59583C8.38179 0.000418026 8.17664 0.0856276 8.02529 0.236977C7.87394 0.388326 7.78873 0.593482 7.78832 0.807522V1.548H5.13817V0.807522C5.13797 0.701141 5.11678 0.595845 5.07584 0.49766C5.03489 0.399474 4.97498 0.310328 4.89954 0.235323C4.8241 0.160318 4.73461 0.100926 4.63619 0.0605475C4.53777 0.0201689 4.43236 -0.000404128 4.32598 6.01366e-06H3.27059C3.05655 0.000418026 2.8514 0.0856276 2.70005 0.236977C2.5487 0.388326 2.46349 0.593482 2.46308 0.807522V1.548H1.12242C0.824733 1.548 0.539242 1.66626 0.328748 1.87675C0.118255 2.08725 6.21611e-07 2.37274 6.21611e-07 2.67042V9.86479C-9.08452e-05 9.91601 0.00991271 9.96674 0.0294394 10.0141C0.0489661 10.0614 0.0776329 10.1045 0.113801 10.1407L2.96661 12.9935C3.00287 13.0297 3.0459 13.0584 3.09324 13.0779C3.14059 13.0974 3.19132 13.1074 3.24253 13.1073H6.91221C7.01557 13.1073 7.1147 13.0663 7.18779 12.9932C7.26088 12.9201 7.30194 12.821 7.30194 12.7176C7.30194 12.6142 7.26088 12.5151 7.18779 12.442C7.1147 12.3689 7.01557 12.3279 6.91221 12.3279V12.3294ZM8.56621 0.807522C8.56621 0.803702 8.56698 0.799921 8.56849 0.796411C8.57 0.792901 8.5722 0.789735 8.57498 0.787108C8.57775 0.784481 8.58103 0.782447 8.58462 0.781133C8.5882 0.779818 8.59202 0.779249 8.59583 0.779461H9.65122C9.65866 0.779461 9.6658 0.782418 9.67106 0.78768C9.67632 0.792942 9.67928 0.80008 9.67928 0.807522V2.91673C9.67928 2.92417 9.67632 2.93131 9.67106 2.93657C9.6658 2.94183 9.65866 2.94479 9.65122 2.94479H8.59583C8.58839 2.94479 8.58125 2.94183 8.57599 2.93657C8.57073 2.93131 8.56777 2.92417 8.56777 2.91673L8.56621 0.807522ZM3.24098 0.807522C3.24097 0.803702 3.24174 0.799921 3.24325 0.796411C3.24476 0.792901 3.24696 0.789735 3.24974 0.787108C3.25251 0.784481 3.25579 0.782447 3.25938 0.781133C3.26296 0.779818 3.26678 0.779249 3.27059 0.779461H4.32598C4.33342 0.779461 4.34056 0.782418 4.34582 0.78768C4.35108 0.792942 4.35404 0.80008 4.35404 0.807522V2.91673C4.35404 2.92417 4.35108 2.93131 4.34582 2.93657C4.34056 2.94183 4.33342 2.94479 4.32598 2.94479H3.27059C3.26315 2.94479 3.25602 2.94183 3.25075 2.93657C3.24549 2.93131 3.24253 2.92417 3.24253 2.91673L3.24098 0.807522ZM1.15359 10.0768H2.69224C2.7832 10.0768 2.87043 10.1129 2.93475 10.1773C2.99907 10.2416 3.0352 10.3288 3.0352 10.4198V11.9568L1.15359 10.0768Z" fill="#333333"/>
<path d="M11.5015 8.10547C10.7924 8.10547 10.0991 8.31575 9.50952 8.70973C8.91989 9.10371 8.46032 9.66369 8.18895 10.3189C7.91757 10.974 7.84656 11.6949 7.98491 12.3905C8.12326 13.086 8.46474 13.7249 8.96618 14.2263C9.46762 14.7277 10.1065 15.0692 10.802 15.2076C11.4975 15.3459 12.2185 15.2749 12.8736 15.0035C13.5288 14.7322 14.0888 14.2726 14.4827 13.683C14.8767 13.0933 15.087 12.4001 15.087 11.691C15.0849 10.7407 14.7065 9.82987 14.0346 9.15791C13.3626 8.48595 12.4518 8.10753 11.5015 8.10547ZM11.5015 14.497C10.9465 14.497 10.404 14.3324 9.94256 14.0241C9.48111 13.7158 9.12145 13.2775 8.90907 12.7648C8.69669 12.2521 8.64112 11.6878 8.74939 11.1435C8.85766 10.5992 9.12491 10.0992 9.51734 9.70679C9.90977 9.31436 10.4098 9.04711 10.9541 8.93884C11.4984 8.83057 12.0626 8.88614 12.5753 9.09852C13.0881 9.3109 13.5263 9.67056 13.8346 10.132C14.143 10.5935 14.3075 11.136 14.3075 11.691C14.3075 12.4352 14.0119 13.1489 13.4857 13.6751C12.9594 14.2014 12.2457 14.497 11.5015 14.497Z" fill="#333333"/>
<path d="M13.0015 11.2994L11.8869 11.3072V10.085C11.8869 9.98168 11.8458 9.88255 11.7727 9.80946C11.6996 9.73637 11.6005 9.69531 11.4971 9.69531C11.3938 9.69531 11.2947 9.73637 11.2216 9.80946C11.1485 9.88255 11.1074 9.98168 11.1074 10.085V11.7001C11.1074 11.8034 11.1485 11.9026 11.2216 11.9757C11.2947 12.0487 11.3938 12.0898 11.4971 12.0898L13.0046 12.0789C13.108 12.0789 13.2071 12.0378 13.2802 11.9647C13.3533 11.8916 13.3943 11.7925 13.3943 11.6892C13.3943 11.5858 13.3533 11.4867 13.2802 11.4136C13.2071 11.3405 13.108 11.2994 13.0046 11.2994H13.0015Z" fill="#333333"/>
</svg>
