<svg width="38" height="44" viewBox="0 0 38 44" fill="none" xmlns="http://www.w3.org/2000/svg">
    <path d="M36.9679 10.6426C36.7057 10.6426 36.4429 10.5435 36.2419 10.3447L28.2176 2.41118C27.8124 2.01003 27.8082 1.35705 28.2094 0.951086C28.6098 0.545811 29.2642 0.541682 29.6688 0.942829L37.6931 8.87632C38.0984 9.27746 38.1025 9.93045 37.7013 10.3364C37.4997 10.5408 37.2341 10.6426 36.9679 10.6426Z" fill="black"/>
    <path d="M28.7179 10.4968C28.1482 10.4968 27.6858 10.0351 27.6858 9.46472V1.68055C27.6858 1.11013 28.1482 0.648438 28.7179 0.648438C29.2876 0.648438 29.75 1.11013 29.75 1.68055V9.46472C29.75 10.0351 29.2876 10.4968 28.7179 10.4968Z" fill="black"/>
    <path d="M36.5028 10.4978H28.7179C28.1482 10.4978 27.6858 10.0361 27.6858 9.4657C27.6858 8.89529 28.1482 8.43359 28.7179 8.43359H36.5028C37.0725 8.43359 37.5349 8.89529 37.5349 9.4657C37.5349 10.0361 37.0725 10.4978 36.5028 10.4978Z" fill="black"/>
    <path d="M6.46351 10.5684C5.89309 10.5684 5.4314 10.1067 5.4314 9.53628V1.68055C5.4314 1.11013 5.89309 0.648438 6.46351 0.648438H28.7179C29.2876 0.648438 29.75 1.11013 29.75 1.68055C29.75 2.25096 29.2876 2.71266 28.7179 2.71266H7.49562V9.53628C7.49562 10.1067 7.03323 10.5684 6.46351 10.5684Z" fill="black"/>
    <path d="M36.9679 43.1946H6.46351C5.89309 43.1946 5.4314 42.7322 5.4314 42.1625V19.5132C5.4314 18.9428 5.89309 18.4811 6.46351 18.4811C7.03392 18.4811 7.49562 18.9428 7.49562 19.5132V41.1304H35.9358V9.8368C35.9358 9.26638 36.3982 8.80469 36.9679 8.80469C37.5376 8.80469 38 9.26638 38 9.8368V42.1618C38 42.7322 37.5376 43.1946 36.9679 43.1946Z" fill="black"/>
    <path d="M21.7161 20.5452H1.53211C0.961697 20.5452 0.5 20.0835 0.5 19.5131V9.53602C0.5 8.9656 0.961697 8.50391 1.53211 8.50391H21.7154C22.2851 8.50391 22.7475 8.9656 22.7475 9.53602V19.5131C22.7482 20.0835 22.2858 20.5452 21.7161 20.5452ZM2.56422 18.481H20.6833V10.5681H2.56422V18.481Z" fill="black"/>
    <path d="M19.102 14.8769C18.9527 14.7324 18.7642 14.656 18.5564 14.656C18.246 14.656 18.0726 14.795 17.9804 14.914C17.8951 15.0262 17.8236 15.1672 17.7733 15.322C17.6963 15.5333 17.5889 15.6853 17.4472 15.7879C17.1768 15.9812 16.7075 15.9902 16.413 15.8023C16.2747 15.7142 16.1687 15.5794 16.0882 15.3895C15.9988 15.1782 15.9541 14.9016 15.9541 14.5672C15.9541 14.0746 16.0525 13.6996 16.2458 13.4519C16.424 13.2234 16.649 13.1175 16.9538 13.1175C17.1417 13.1175 17.2903 13.1574 17.408 13.2379C17.5373 13.3273 17.6557 13.4711 17.7582 13.6631C17.8545 13.8461 17.946 13.9769 18.0389 14.0649C18.2935 14.3058 18.8116 14.3298 19.1082 14.0078C19.2472 13.8571 19.3208 13.6727 19.3208 13.4725C19.3208 13.1938 19.2162 12.9035 19.0091 12.6103C18.8109 12.331 18.5281 12.0964 18.1683 11.9133C17.5153 11.5803 16.6229 11.5425 15.8935 11.8369C15.5619 11.9711 15.2681 12.1693 15.0197 12.4259C14.7726 12.6819 14.58 12.9929 14.4486 13.3507C14.344 13.6335 14.2924 13.9555 14.2724 14.2961C14.247 13.8227 14.1472 13.3927 13.9655 13.0232C13.7474 12.5801 13.4206 12.234 12.9953 11.9925C12.5791 11.7564 12.0795 11.6367 11.5112 11.6367C11.0928 11.6367 10.7103 11.7041 10.3759 11.8376C10.0332 11.9739 9.73801 12.1741 9.49856 12.4321C9.26049 12.6888 9.07677 13.0012 8.95361 13.361C8.85865 13.6369 8.81117 13.9425 8.79122 14.2597C8.74168 13.392 8.45888 12.7101 7.92425 12.2525C7.68755 12.0454 7.41851 11.9016 7.12539 11.8259C6.85704 11.7558 6.53503 11.7207 6.16897 11.7207H4.8692C4.56094 11.7207 4.32149 11.8032 4.15911 11.9656C3.99672 12.128 3.91415 12.3675 3.91415 12.6757V16.2874C3.91415 16.4794 3.93204 16.637 3.9692 16.767C4.02012 16.9521 4.13571 17.1014 4.30429 17.2032C4.45223 17.2913 4.64351 17.3333 4.88984 17.3333H6.1903C6.4325 17.3333 6.65544 17.3175 6.85429 17.2858C7.0614 17.2521 7.26094 17.1922 7.44741 17.1076C7.63526 17.0223 7.81072 16.9067 7.97172 16.7622C8.16645 16.5826 8.32883 16.3762 8.45338 16.1484C8.57723 15.9234 8.66874 15.6695 8.72723 15.3929C8.76301 15.2216 8.78365 15.0344 8.79672 14.8418C8.82012 15.1239 8.86278 15.3977 8.94535 15.6509C9.0637 16.0129 9.24328 16.3294 9.47861 16.5908C9.7153 16.8537 10.0139 17.0608 10.3676 17.2053C10.713 17.3457 11.1052 17.4172 11.5318 17.4172C11.9619 17.4172 12.352 17.3477 12.6912 17.2108C13.0401 17.0704 13.338 16.864 13.5775 16.5977C13.8155 16.3342 13.9951 16.0204 14.1121 15.6661C14.2098 15.3736 14.2566 15.0454 14.271 14.6993C14.28 14.9051 14.2903 15.1108 14.3309 15.2973C14.3825 15.5402 14.4609 15.7714 14.5642 15.9881C14.6687 16.2055 14.7967 16.4044 14.9454 16.5805C15.1139 16.7787 15.3038 16.9411 15.5075 17.0629C15.7105 17.186 15.9389 17.2775 16.1873 17.3347C16.4261 17.3897 16.6903 17.4172 16.9745 17.4172C17.3626 17.4172 17.7114 17.3525 18.0107 17.2253C18.3121 17.0959 18.5639 16.9246 18.7593 16.7168C18.9527 16.5124 19.0979 16.297 19.1908 16.0769C19.2864 15.8525 19.3346 15.6358 19.3346 15.4335C19.3346 15.2175 19.2548 15.0262 19.102 14.8769ZM6.72838 15.706C6.68778 15.7418 6.63893 15.7693 6.577 15.7913C6.50682 15.8168 6.43594 15.8333 6.36714 15.8402C6.28113 15.8484 6.16278 15.8519 6.0114 15.8519H5.59925V13.1966H5.9137C6.18273 13.1966 6.41117 13.2248 6.59214 13.2805C6.72494 13.3218 6.83916 13.423 6.94168 13.5922C7.01943 13.7202 7.11163 13.9817 7.11163 14.5053C7.11232 15.086 6.98503 15.4886 6.72838 15.706ZM12.4291 15.3482C12.33 15.5553 12.2075 15.7005 12.0527 15.7927C11.7651 15.964 11.3942 15.9778 11.1148 15.8546C10.9937 15.8009 10.8885 15.7211 10.7921 15.6097C10.6951 15.4975 10.6174 15.3496 10.5616 15.17C10.5018 14.978 10.4715 14.7564 10.4715 14.5129C10.4715 14.2714 10.5018 14.0539 10.5609 13.8661C10.6174 13.6886 10.6924 13.5441 10.7846 13.4353C10.8726 13.3314 10.9752 13.2544 11.099 13.1993C11.2229 13.145 11.3619 13.1168 11.5126 13.1168C11.7279 13.1168 11.9123 13.1656 12.0733 13.2675C12.2309 13.3672 12.3513 13.5131 12.4401 13.714C12.5371 13.9335 12.5859 14.2032 12.5859 14.5129C12.5853 14.85 12.533 15.1308 12.4291 15.3482Z" fill="black"/>
</svg>
