<svg xmlns="http://www.w3.org/2000/svg" width="13" height="19" viewBox="0 0 13 19" fill="none">
    <path d="M5.92383 14.5281C5.99169 14.596 6.0799 14.6571 6.16812 14.691C6.1749 14.691 6.1749 14.691 6.18169 14.6978C6.2699 14.7317 6.35812 14.7521 6.45312 14.7521C6.54812 14.7521 6.64312 14.7317 6.72454 14.6978C6.73133 14.6978 6.73133 14.6978 6.73811 14.691C6.83311 14.6503 6.91454 14.596 6.9824 14.5281L11.427 10.0835C11.7188 9.79173 11.7188 9.31674 11.427 9.02495C11.1352 8.73317 10.6602 8.73317 10.3685 9.02495L7.20633 12.1871V0.75321C7.20633 0.332498 6.86704 0 6.45312 0C6.03919 0 5.69991 0.332498 5.69991 0.75321V12.1871L2.53778 9.02495C2.246 8.73317 1.771 8.73317 1.47921 9.02495C1.18743 9.31674 1.18743 9.79173 1.47921 10.0835L5.92383 14.5281Z" fill="black"/>
    <path d="M12.1531 17.5H0.75321C0.339284 17.5 0 17.8325 0 18.2532C0 18.6739 0.339284 18.9996 0.75321 18.9996H12.1531C12.5671 18.9996 12.9064 18.6671 12.9064 18.2464C12.9064 17.8257 12.5671 17.5 12.1531 17.5Z" fill="black"/>
</svg>
