<svg width="18" height="18" viewBox="0 0 18 18" fill="none" xmlns="http://www.w3.org/2000/svg">
<path d="M13.8596 17.0767H0.611393C0.273863 17.0767 0 16.803 0 16.4651V3.21686C0 2.87914 0.273863 2.60547 0.611393 2.60547H7.23542C7.57314 2.60547 7.84681 2.87933 7.84681 3.21686C7.84681 3.55439 7.57295 3.82825 7.23542 3.82825H1.22298V15.8537H13.2482V9.84089C13.2482 9.50317 13.5221 9.22949 13.8596 9.22949C14.1974 9.22949 14.471 9.50336 14.471 9.84089V16.4651C14.4712 16.803 14.1974 17.0767 13.8596 17.0767Z" fill="black"/>
<path d="M16.9259 2.08262L15.0203 0.178885C14.7818 -0.0596284 14.3946 -0.0596284 14.1561 0.178885L12.4339 1.90321L5.77698 8.55993C5.72187 8.61504 5.67721 8.68023 5.64661 8.7515L4.22199 12.0799C4.12202 12.3102 4.17505 12.5772 4.35046 12.7524C4.46867 12.8707 4.62356 12.9319 4.78264 12.9319C4.86417 12.9319 4.9457 12.9155 5.02514 12.883L8.3535 11.4584C8.42477 11.4278 8.49014 11.3829 8.54507 11.328L15.2018 4.6713L16.9261 2.94906C17.1644 2.70827 17.1644 2.32114 16.9259 2.08262ZM5.94613 11.1587L6.5026 9.86235L7.24246 10.6022L5.94613 11.1587ZM7.96808 10.1763L6.92869 9.13692L12.925 3.14044L13.9646 4.17983L7.96808 10.1763ZM14.5412 3.60303L13.5018 2.56364L14.5881 1.47731L15.6275 2.5148L14.5412 3.60303Z" fill="black"/>
</svg>
