<svg width="21" height="22" viewBox="0 0 21 22" fill="none" xmlns="http://www.w3.org/2000/svg">
<path d="M14.7603 17.0573L20.7695 1.18818C20.8861 0.882444 20.8112 0.534822 20.5821 0.300282C20.3531 0.0657419 20.0033 -0.0054578 19.6993 0.111812L3.92028 6.15541C3.59129 6.28105 3.37474 6.60354 3.38723 6.95954C3.39973 7.31554 3.63293 7.62547 3.97025 7.73018L10.9956 9.94155L13.1903 17.0071C13.2319 17.1369 13.3027 17.2542 13.3943 17.3463C13.5401 17.4929 13.74 17.585 13.9565 17.5892C14.3105 17.606 14.6312 17.3882 14.7603 17.0573ZM12.5989 9.51017L15.818 6.27268C16.1429 5.946 16.1429 5.41828 15.818 5.0916C15.4932 4.76492 14.9685 4.76492 14.6437 5.0916L11.4246 8.32909L6.74792 6.85903L18.5541 2.33575L14.0565 14.2093L12.5989 9.51017Z" fill="#827E7E"/>
<path d="M4.15817 10.534C3.83335 10.2074 3.30863 10.2074 2.98381 10.534L0.243619 13.2857C-0.0812062 13.6124 -0.0812062 14.1401 0.243619 14.4668C0.568443 14.7935 1.09316 14.7935 1.41798 14.4668L4.15817 11.7109C4.483 11.3884 4.483 10.8607 4.15817 10.534Z" fill="#827E7E"/>
<path d="M10.4079 16.8202C10.0831 16.4935 9.55837 16.4935 9.23355 16.8202L6.49752 19.5761C6.1727 19.9027 6.1727 20.4304 6.49752 20.7571C6.82235 21.0838 7.34707 21.0838 7.67189 20.7571L10.4121 18.0013C10.7327 17.6746 10.7327 17.1469 10.4079 16.8202Z" fill="#827E7E"/>
<path d="M9.10914 11.8408C8.78432 11.5141 8.2596 11.5141 7.93477 11.8408L3.37057 16.4311C3.04575 16.7577 3.04575 17.2855 3.37057 17.6121C3.6954 17.9388 4.22011 17.9388 4.54494 17.6121L9.1133 13.0177C9.43397 12.6952 9.43396 12.1633 9.10914 11.8408Z" fill="#827E7E"/>
</svg>
