<svg width="14" height="19" viewBox="0 0 14 19" fill="none" xmlns="http://www.w3.org/2000/svg">
<path d="M13.3272 0.171875H0.67309C0.301275 0.171875 0 0.47315 0 0.844965V18.3259C0 18.5871 0.151311 18.8248 0.3877 18.9355C0.624089 19.0461 0.903556 19.01 1.10414 18.8426L7.00013 13.9236L12.8959 18.8426C13.0192 18.9457 13.1724 18.999 13.3272 18.999C13.4238 18.999 13.5213 18.978 13.6123 18.9355C13.849 18.8248 14 18.5871 14 18.3259V0.844965C14.0003 0.47315 13.699 0.171875 13.3272 0.171875ZM12.6541 16.8877L7.43145 12.5303C7.30653 12.4261 7.15333 12.3739 7.00013 12.3739C6.84694 12.3739 6.69374 12.4259 6.56882 12.5303L1.34618 16.8877V1.51805H12.6541V16.8877Z" fill="#827E7E"/>
</svg>
