<svg width="48" height="59" viewBox="0 0 48 59" fill="none" xmlns="http://www.w3.org/2000/svg">
<path d="M28.258 37.7614C27.3885 37.0161 26.519 36.0846 25.5253 35.0909C24.8422 34.3456 24.0969 33.2898 23.4759 32.1719C24.6559 28.1351 25.2148 24.2846 23.9727 22.4214C23.4138 21.5519 22.5443 21.1172 21.4264 21.1172C20.1843 21.1172 19.2527 21.6761 18.818 22.7319C17.8243 24.9677 19.3148 29.0667 21.1159 32.4203C20.619 34.0351 19.998 35.774 19.2527 37.6993C18.818 38.7551 18.3211 39.8109 17.8243 40.8046C12.7316 42.7919 9.62638 45.0277 9.19165 47.1393C9.00533 48.133 9.31586 49.0025 10.1853 49.6856C10.6822 50.0582 11.2411 50.3067 11.8622 50.3067C12.1106 50.3067 12.359 50.2446 12.6074 50.1825C14.9674 49.5614 17.5138 46.0835 19.3769 42.5435C20.4948 42.1088 21.799 41.674 23.2274 41.3014C24.9043 40.8046 26.3948 40.4319 27.699 40.1835C30.1211 42.1088 32.1706 43.1646 33.9716 43.1646C35.338 43.2267 36.3316 42.7298 37.2632 41.7982C38.6295 40.4319 38.0706 39.2519 37.8843 38.9414C36.7664 37.2024 33.3506 36.8298 28.258 37.7614ZM11.9864 48.0088C11.738 48.0709 11.6138 48.0088 11.4895 47.9467C11.2411 47.7603 11.2411 47.6361 11.3032 47.5119C11.4274 46.7667 12.8559 45.4003 15.9611 43.9098C14.4706 46.1456 12.9801 47.7603 11.9864 48.0088ZM20.8053 23.6014C20.8674 23.4772 20.9295 23.2909 21.4264 23.2909C21.8611 23.2909 22.0474 23.4772 22.1716 23.6014C22.7306 24.4088 22.6685 26.4582 21.9853 29.1909C20.9295 26.8309 20.3706 24.5951 20.8053 23.6014ZM22.5443 39.1277C21.9232 39.314 21.3022 39.5003 20.6811 39.6867C20.8674 39.2519 21.0538 38.8172 21.2401 38.4446C21.6748 37.2646 22.1716 36.0846 22.6064 34.8424C23.1032 35.5256 23.538 36.1467 23.9727 36.5814C24.5316 37.2025 25.0906 37.7614 25.6495 38.3203C24.6559 38.5688 23.6001 38.8172 22.5443 39.1277ZM35.6485 40.2456C35.2138 40.7425 34.6548 40.9288 33.9716 40.9288C33.0401 40.9288 31.9222 40.494 30.618 39.6246C34.2201 39.1277 36.2695 39.5003 35.6485 40.2456Z" fill="black"/>
<path d="M45.8337 14.9674L32.2326 1.36632C31.3632 0.496842 30.1832 0 29.0032 0H4.59579C3.35368 0 2.23579 0.496842 1.36632 1.36632C0.496842 2.23579 0 3.35368 0 4.59579V54.4042C0 56.9505 2.04947 59 4.59579 59H42.6042C45.1505 59 47.2 56.9505 47.2 54.4042V18.1968C47.2 17.0168 46.7032 15.8368 45.8337 14.9674ZM43.2253 16.0853H33.1642C32.0463 16.0853 31.1147 15.1537 31.1147 14.0358V4.03684L43.2253 16.0853ZM42.6042 56.3295H4.59579C3.54 56.3295 2.67053 55.46 2.67053 54.4042V4.59579C2.67053 4.09895 2.85684 3.60211 3.22947 3.22947C3.60211 2.85684 4.09895 2.67053 4.59579 2.67053H28.4442V14.0358C28.4442 16.6442 30.5558 18.7558 33.1642 18.7558H44.5295V54.4042C44.5295 55.46 43.66 56.3295 42.6042 56.3295Z" fill="black"/>
</svg>
