<svg width="14" height="15" viewBox="0 0 14 15" fill="none" xmlns="http://www.w3.org/2000/svg">
<path d="M11.5809 13.9747C11.7731 14.2941 11.677 14.6975 11.3727 14.8992C11.2606 14.9664 11.1485 15 11.0365 15C10.8283 15 10.6041 14.8823 10.492 14.6807L9.81941 13.5377C10.2037 13.336 10.5721 13.1007 10.9083 12.8318L11.5809 13.9747ZM4.08649 1.40263C4.05446 1.03286 3.92635 0.696709 3.68615 0.427786C3.0456 -0.244519 1.84457 -0.110058 1.04388 0.730324L0.707595 1.08328C-0.109105 1.94047 -0.237215 3.18424 0.419348 3.85654C0.659554 4.10866 0.963814 4.24312 1.3001 4.27673C1.92464 3.04978 2.90148 2.04132 4.08649 1.40263ZM13.2944 1.08328L12.9581 0.730324C12.1574 -0.110058 10.9564 -0.244519 10.3158 0.427786C10.0756 0.679901 9.9315 1.03286 9.91549 1.40263C11.1165 2.04132 12.0934 3.04978 12.7179 4.29354C13.0542 4.25993 13.3584 4.12546 13.5986 3.87335C14.2392 3.18424 14.0951 1.94047 13.2944 1.08328ZM3.09364 12.8318L2.42106 13.9747C2.2289 14.2941 2.32498 14.6975 2.62924 14.8992C2.74134 14.9664 2.85343 15 2.96553 15C3.17371 15 3.3979 14.8823 3.51 14.6807L4.18257 13.5377C3.79825 13.336 3.42993 13.1007 3.09364 12.8318ZM7.00099 2.34386C4.3267 2.34386 2.14883 4.62969 2.14883 7.43657C2.14883 10.2434 4.3267 12.5293 7.00099 12.5293C9.67528 12.5293 11.8532 10.2434 11.8532 7.43657C11.8532 4.62969 9.67528 2.34386 7.00099 2.34386ZM7.00099 0.999246C10.3799 0.999246 13.1343 3.89016 13.1343 7.43657C13.1343 10.983 10.3799 13.8739 7.00099 13.8739C3.62209 13.8739 0.867732 10.9998 0.867732 7.43657C0.867732 3.87335 3.62209 0.999246 7.00099 0.999246ZM7.40133 8.26014V4.34396C7.40133 4.10866 7.22518 3.92377 7.00099 3.92377C6.7768 3.92377 6.60065 4.10866 6.60065 4.34396V7.83995H4.87116C4.64697 7.83995 4.47082 8.02483 4.47082 8.26014C4.47082 8.49545 4.64697 8.68033 4.87116 8.68033H7.00099C7.22518 8.68033 7.40133 8.49545 7.40133 8.26014Z" fill="#989898"/>
</svg>
