<svg xmlns="http://www.w3.org/2000/svg" width="52" height="42" viewBox="0 0 52 42" fill="none">
    <path d="M50.6656 13.9397C50.5048 13.7197 50.2945 13.5406 50.0517 13.4169C49.8089 13.2933 49.5404 13.2285 49.2679 13.2278H43.2434V8.58359C43.2434 8.12313 43.0605 7.68153 42.7349 7.35593C42.4093 7.03034 41.9677 6.84742 41.5073 6.84742H28.6596L23.3556 1.54342C23.0315 1.21738 22.5913 1.03319 22.1316 1.03125H2.73856C2.2781 1.03125 1.8365 1.21417 1.51091 1.53976C1.18531 1.86536 1.00239 2.30696 1.00239 2.76742V39.5222C0.999202 39.5829 0.999202 39.6437 1.00239 39.7045C1.00239 39.7045 1.00239 39.7913 1.00239 39.8347C1.02491 39.9537 1.05982 40.0701 1.10656 40.1819C1.15518 40.2981 1.21631 40.4088 1.28886 40.5118L1.34963 40.5725C1.40268 40.6404 1.46071 40.7043 1.52325 40.7635L1.62742 40.8503L1.83576 40.9892L1.94861 41.05L2.20035 41.1455H2.30452C2.42984 41.174 2.55795 41.1886 2.68648 41.1889H41.5073C41.6751 41.1869 41.8418 41.1606 42.0021 41.1108H42.0976C42.2456 41.0576 42.3858 40.9846 42.5142 40.8937L42.575 40.8416C42.689 40.7507 42.7911 40.6457 42.8788 40.5291L42.9222 40.4771C43.0145 40.3432 43.0876 40.1971 43.1393 40.043V39.9996L50.9173 15.4936C51.0007 15.233 51.0214 14.9565 50.9777 14.6864C50.9339 14.4164 50.827 14.1605 50.6656 13.9397ZM4.47474 4.50359H21.4024L26.7064 9.80759C26.7812 9.88136 26.8626 9.94819 26.9495 10.0073L27.097 10.0854L27.2446 10.1635L27.4356 10.2243H27.5745C27.6871 10.2353 27.8005 10.2353 27.913 10.2243H39.7711V13.1324H10.4992C10.1295 13.132 9.76925 13.2496 9.47102 13.4682C9.17279 13.6868 8.95213 13.9949 8.84121 14.3477L4.50078 28.1589V4.50359H4.47474ZM40.2399 37.786H5.10844L11.7667 16.7002H46.8981L40.2399 37.786Z" fill="black" stroke="white"/>
</svg>
