<svg xmlns="http://www.w3.org/2000/svg" width="18" height="16" viewBox="0 0 18 16" fill="none">
<path d="M15.8253 0L1.04594 14.935L1.92648 15.8248L4.97307 12.7461C6.06393 13.249 7.34413 13.588 8.83454 13.588C14.8087 13.588 17.5268 8.19748 17.5268 8.19748L17.6691 7.91116L17.5256 7.6273C17.5256 7.6273 16.3606 5.33039 13.883 3.74234L16.7058 0.889824L15.8253 0ZM8.83454 2.26143C2.86034 2.26143 0.142293 7.65183 0.142293 7.65183L0 7.93823L0.143513 8.22209C0.143513 8.22209 0.997695 9.90465 2.79728 11.3856L3.65471 10.5192C2.36185 9.48577 1.64432 8.3223 1.42783 7.937C1.84364 7.19305 4.10806 3.51988 8.83454 3.51988C9.40319 3.51988 9.93422 3.57558 10.4326 3.66976L11.4494 2.64233C10.6569 2.41068 9.79216 2.26128 8.83454 2.26128V2.26143ZM12.994 4.6408C14.9357 5.77795 15.9738 7.4364 16.2413 7.91239C15.8254 8.65634 13.561 12.3294 8.83454 12.3294C7.71755 12.3851 6.82592 11.9391 6.02024 11.6879L7.1659 10.5302C7.65762 10.8612 8.24373 11.0586 8.87589 11.0586C10.5881 11.0586 11.9894 9.64259 11.9894 7.91239C11.9894 7.27358 11.794 6.68132 11.4664 6.18442L12.994 4.6408ZM8.87589 4.76607C7.16373 4.76607 5.7624 6.18221 5.7624 7.91239C5.7624 8.06294 5.77598 8.20988 5.79646 8.35484C6.97137 7.16717 8.13956 5.98707 9.31374 4.80055C9.17029 4.77914 9.02476 4.766 8.87589 4.766L8.87589 4.76607ZM10.5616 7.09878C10.678 7.34426 10.744 7.61924 10.744 7.91239C10.744 8.96243 9.91499 9.80011 8.87589 9.80011C8.5858 9.80011 8.31369 9.73356 8.07076 9.61583L10.5616 7.09878Z" fill="black"/>
</svg>