<svg xmlns="http://www.w3.org/2000/svg" width="47" height="41" viewBox="0 0 47 41" fill="none">
    <path fill-rule="evenodd" clip-rule="evenodd" d="M3.64706 28.8382V37.4H40.7059V40H1V1H46V32.2H43.3529V26.025L32.8891 18.316L25.3715 25.7L26.695 27L24.8235 28.8382L14.2353 18.4382L3.64706 28.8382ZM46 34.8H43.3529V40H46V34.8ZM43.3529 22.775V3.6H3.64706V25.1618L14.2353 14.7618L23.5 23.8618L32.6403 14.884L43.3529 22.775ZM23.9182 6.1766C26.8406 6.1766 29.2124 8.5062 29.2124 11.3766C29.2124 14.2444 26.8406 16.5766 23.9182 16.5766C20.9985 16.5766 18.6241 14.2444 18.6241 11.3766C18.6241 8.5062 20.9985 6.1766 23.9182 6.1766ZM23.9182 8.7766C25.3794 8.7766 26.5653 9.9414 26.5653 11.3766C26.5653 12.8092 25.3794 13.9766 23.9182 13.9766C22.4597 13.9766 21.2712 12.8092 21.2712 11.3766C21.2712 9.9414 22.4597 8.7766 23.9182 8.7766Z" fill="black" stroke="white" stroke-width="0.75"/>
</svg>
