<svg width="14" height="13" viewBox="0 0 14 13" fill="none" xmlns="http://www.w3.org/2000/svg">
<path d="M11.3021 12.1968H2.69794C1.98266 12.1961 1.29691 11.9483 0.791125 11.5076C0.285341 11.0669 0.000827535 10.4695 0 9.84626V6.098C0 5.99016 0.0491665 5.88674 0.136683 5.81049C0.2242 5.73424 0.342899 5.69141 0.466667 5.69141H13.5333C13.6571 5.69141 13.7758 5.73424 13.8633 5.81049C13.9508 5.88674 14 5.99016 14 6.098V9.84626C13.9992 10.4695 13.7147 11.0669 13.2089 11.5076C12.7031 11.9483 12.0174 12.1961 11.3021 12.1968ZM0.933333 6.50459V9.84626C0.933877 10.2539 1.11997 10.6446 1.45078 10.9329C1.78159 11.2211 2.23011 11.3832 2.69794 11.3837H11.3021C11.7699 11.3832 12.2184 11.2211 12.5492 10.9328C12.88 10.6446 13.0661 10.2539 13.0667 9.84626V6.50459H0.933333Z" fill="black"/>
<path d="M11.6672 6.50537H2.33386C2.21009 6.50537 2.09139 6.46253 2.00387 6.38629C1.91635 6.31004 1.86719 6.20662 1.86719 6.09879V0.406586C1.86719 0.298752 1.91635 0.195336 2.00387 0.119086C2.09139 0.0428366 2.21009 0 2.33386 0H11.6672C11.791 0 11.9097 0.0428366 11.9972 0.119086C12.0847 0.195336 12.1339 0.298752 12.1339 0.406586V6.09879C12.1339 6.20662 12.0847 6.31004 11.9972 6.38629C11.9097 6.46253 11.791 6.50537 11.6672 6.50537ZM2.80053 5.6922H11.2006V0.813171H2.80053V5.6922Z" fill="black"/>
<path d="M11.6672 8.13153H2.33386C2.21009 8.13153 2.09139 8.08869 2.00387 8.01244C1.91635 7.9362 1.86719 7.83278 1.86719 7.72495C1.86719 7.61711 1.91635 7.51369 2.00387 7.43745C2.09139 7.3612 2.21009 7.31836 2.33386 7.31836H11.6672C11.791 7.31836 11.9097 7.3612 11.9972 7.43745C12.0847 7.51369 12.1339 7.61711 12.1339 7.72495C12.1339 7.83278 12.0847 7.9362 11.9972 8.01244C11.9097 8.08869 11.791 8.13153 11.6672 8.13153Z" fill="black"/>
</svg>
