<svg width="20" height="17" viewBox="0 0 20 17" fill="none" xmlns="http://www.w3.org/2000/svg">
<path d="M19.9333 7.54014L16.7222 1.49184C16.2333 0.572449 15.3 0 14.2889 0H5.70556C4.69444 0 3.76111 0.572449 3.27222 1.49184L0.0666665 7.53435C0.0222221 7.62109 0 7.71361 0 7.8119V14.1088C0 15.7048 1.24444 17 2.77778 17H17.2222C18.7556 17 20 15.7048 20 14.1088V7.81769C20 7.71939 19.9778 7.62109 19.9333 7.54014ZM14.8444 7.22789C14.6889 7.22789 14.5389 7.30884 14.4333 7.43027L12.4167 9.77211H7.58333L5.56667 7.43027C5.46111 7.30884 5.31111 7.22789 5.15556 7.22789H1.49444L4.25 2.04694C4.54444 1.49184 5.1 1.15646 5.71111 1.15646H14.2944C14.9 1.15646 15.4611 1.49762 15.7556 2.04694L18.5056 7.22789H14.8444Z" fill="white"/>
</svg>
