<svg width="40" height="11" viewBox="0 0 40 11" fill="none" xmlns="http://www.w3.org/2000/svg">
<path d="M8.255 2.6V0.499999H0.26V11H2.57V6.935H7.58V4.835H2.57V2.6H8.255ZM14.7088 5.195V2.81C13.3588 2.75 12.6088 3.47 12.1438 4.58V2.96H9.86375V11H12.1438V8.03C12.1438 6.11 13.0738 5.195 14.5888 5.195H14.7088ZM17.1256 11V8.6H14.6956V11H17.1256ZM23.2147 11H24.0247L25.3597 8.06H31.5547L32.8897 11H33.7447L28.8547 0.424999H28.1047L23.2147 11ZM25.6897 7.355L28.4647 1.28L31.2247 7.355H25.6897ZM35.8003 11H36.5353V7.865C36.5353 5.375 38.0803 4.04 39.8503 4.04H39.9253V3.23C38.4103 3.17 37.1353 4.16 36.5353 5.525V3.35H35.8003V11Z" fill="black"/>
</svg>
