<svg width="14" height="14" viewBox="0 0 14 14" fill="none" xmlns="http://www.w3.org/2000/svg">
<path d="M3.53991 6.87389C3.38932 6.72309 3.38954 6.4788 3.54057 6.32822C3.69137 6.17786 3.93565 6.17786 4.08624 6.32888L6.56655 8.81471V0.385827C6.56655 0.17285 6.7394 0 6.95238 0C7.16535 0 7.3382 0.17285 7.3382 0.385827V8.81471L9.81852 6.32888C9.9691 6.17786 10.2134 6.17786 10.3644 6.32822C10.5152 6.4788 10.5157 6.72309 10.3651 6.87389L7.22532 10.02C7.22246 10.0229 7.21915 10.0247 7.21628 10.0273C7.20085 10.0419 7.18476 10.0557 7.16712 10.0677C7.15896 10.0732 7.14992 10.0769 7.14132 10.0815C7.12809 10.089 7.11509 10.0972 7.10076 10.1031C7.09106 10.1071 7.08091 10.1091 7.07099 10.1124C7.05688 10.117 7.04321 10.1223 7.02844 10.1254C7.00353 10.1305 6.97795 10.1331 6.95216 10.1331C6.92636 10.1331 6.90079 10.1305 6.87587 10.1254C6.86088 10.1223 6.84699 10.117 6.83266 10.1122C6.82296 10.1091 6.81304 10.1071 6.80356 10.1031C6.78879 10.097 6.77534 10.0886 6.76145 10.0807C6.75351 10.076 6.74491 10.0727 6.7372 10.0674C6.71647 10.0535 6.69707 10.0377 6.67943 10.0198L6.67921 10.0196L3.53991 6.87389ZM13.6142 9.90847C13.401 9.90847 13.2283 10.0811 13.2283 10.2943V12.9528C13.2283 13.1022 13.1003 13.2283 12.9486 13.2283H1.05099C0.896882 13.2283 0.771654 13.1047 0.771654 12.9528V10.2943C0.771654 10.0811 0.598803 9.90847 0.385827 9.90847C0.17285 9.90847 0 10.0811 0 10.2943V12.9528C0 13.5302 0.471591 14 1.05099 14H12.9486C13.5282 14 14 13.5302 14 12.9528V10.2943C14 10.0813 13.8274 9.90847 13.6142 9.90847Z" fill="#737171"/>
</svg>
