<svg width="13" height="18" viewBox="0 0 13 18" fill="none" xmlns="http://www.w3.org/2000/svg">
<path d="M5.94211 12.9989C6.00283 13.0596 6.08175 13.1143 6.16068 13.1446C6.16675 13.1446 6.16675 13.1446 6.17282 13.1507C6.25175 13.181 6.33068 13.1993 6.41568 13.1993C6.50068 13.1993 6.58568 13.181 6.65854 13.1507C6.66461 13.1507 6.66461 13.1507 6.67068 13.1446C6.75568 13.1082 6.82854 13.0596 6.88925 12.9989L10.866 9.02212C11.1271 8.76105 11.1271 8.33605 10.866 8.07498C10.605 7.81391 10.18 7.81391 9.91889 8.07498L7.08961 10.9043V0.673927C7.08961 0.297499 6.78604 0 6.41568 0C6.04532 0 5.74175 0.297499 5.74175 0.673927V10.9043L2.91247 8.07498C2.6514 7.81391 2.22641 7.81391 1.96533 8.07498C1.70426 8.33605 1.70426 8.76105 1.96533 9.02212L5.94211 12.9989Z" fill="black"/>
<path d="M11.5155 15.6602H1.31553C0.945172 15.6602 0.641602 15.9577 0.641602 16.3341C0.641602 16.7105 0.945172 17.0019 1.31553 17.0019H11.5155C11.8859 17.0019 12.1894 16.7044 12.1894 16.328C12.1894 15.9516 11.8859 15.6602 11.5155 15.6602Z" fill="black"/>
</svg>
