<svg width="29" height="24" viewBox="0 0 29 24" fill="none" xmlns="http://www.w3.org/2000/svg">
<path d="M22.3899 1.00009C22.3172 1.00073 22.2427 1.00205 22.1694 1.00968C21.5837 1.07066 20.9964 1.35492 20.5397 1.81497L15.545 6.84805C15.4865 6.90492 15.4399 6.9729 15.408 7.04799C15.3761 7.12308 15.3595 7.20378 15.3591 7.28538C15.3588 7.36697 15.3747 7.44781 15.406 7.52317C15.4372 7.59853 15.4832 7.6669 15.5412 7.72427C15.5992 7.78165 15.6681 7.82688 15.7438 7.85732C15.8195 7.88775 15.9005 7.90278 15.9821 7.90154C16.0637 7.90029 16.1442 7.88278 16.2189 7.85004C16.2937 7.8173 16.3611 7.76998 16.4174 7.71086L21.4025 2.67778C21.9448 2.13158 22.6057 2.12453 22.898 2.41894L26.5794 6.11945C26.8717 6.41386 26.8628 7.08796 26.3205 7.63416L18.4306 15.5816C17.8883 16.1279 17.2273 16.1349 16.935 15.8405L13.5221 12.3988C13.4649 12.3411 13.3969 12.2953 13.322 12.264C13.247 12.2327 13.1666 12.2165 13.0854 12.2163C13.0042 12.2161 12.9237 12.232 12.8486 12.263C12.7736 12.294 12.7053 12.3395 12.6479 12.397C12.5905 12.4544 12.5449 12.5226 12.5139 12.5977C12.4829 12.6728 12.4671 12.7532 12.4672 12.8345C12.4674 12.9157 12.4836 12.9961 12.5149 13.071C12.5462 13.146 12.5921 13.214 12.6497 13.2712L16.0722 16.7033C16.9445 17.5819 18.3895 17.3645 19.303 16.4444L27.1834 8.50656C28.0968 7.58648 28.3241 6.13525 27.4518 5.25663L23.7704 1.54654C23.3888 1.16214 22.8991 0.995586 22.3899 1.00009ZM11.5473 6.81928C11.4745 6.81967 11.4 6.82125 11.3268 6.82887C10.741 6.88985 10.1537 7.17413 9.697 7.63416L1.81664 15.5816C0.903178 16.5018 0.675911 17.9433 1.54821 18.822L5.22955 22.5321C6.10186 23.4107 7.54683 23.1837 8.4603 22.2636L13.455 17.2402C13.5707 17.1245 13.6357 16.9676 13.6357 16.804C13.6357 16.6403 13.5707 16.4834 13.455 16.3678C13.3393 16.2521 13.1824 16.1871 13.0188 16.1871C12.8552 16.1871 12.6983 16.2521 12.5826 16.3678L7.59749 21.4008C7.05522 21.947 6.39424 21.9637 6.10195 21.6693L2.42061 17.9592C2.1283 17.6647 2.13717 16.9907 2.67946 16.4444L10.5694 8.50656C11.1117 7.96038 11.7726 7.94371 12.0649 8.23813L15.4779 11.6798C15.5341 11.7389 15.6015 11.7862 15.6763 11.819C15.751 11.8517 15.8315 11.8692 15.9131 11.8705C15.9947 11.8717 16.0757 11.8567 16.1514 11.8263C16.2271 11.7958 16.296 11.7506 16.354 11.6932C16.412 11.6358 16.458 11.5675 16.4893 11.4921C16.5205 11.4167 16.5365 11.3359 16.5361 11.2543C16.5358 11.1727 16.5191 11.092 16.4872 11.0169C16.4553 10.9418 16.4088 10.8739 16.3503 10.817L12.9278 7.37532C12.5461 6.99093 12.0565 6.81662 11.5473 6.81928Z" fill="#EC1E24" stroke="#EC1E24" stroke-width="0.5"/>
</svg>
