<svg width="42" height="29" viewBox="0 0 42 29" fill="none" xmlns="http://www.w3.org/2000/svg">
<path d="M2.37216 0.945312C2.00825 0.945349 1.65926 1.08993 1.40194 1.34726C1.14461 1.60458 1.00004 1.95356 1 2.31747V27.0163C1.00004 27.3802 1.14461 27.7292 1.40194 27.9866C1.65926 28.2439 2.00825 28.3885 2.37216 28.3885H39.8778C40.2417 28.3885 40.5907 28.2439 40.8481 27.9866C41.1054 27.7292 41.25 27.3802 41.25 27.0163V2.31747C41.25 1.95356 41.1054 1.60458 40.8481 1.34726C40.5907 1.08993 40.2417 0.945349 39.8778 0.945312H2.37216ZM6.25994 3.68963H35.9901L21.125 15.6531L6.25994 3.68963ZM3.74432 5.17614L20.2674 18.4689C20.5108 18.6638 20.8132 18.7699 21.125 18.7699C21.4368 18.7699 21.7392 18.6638 21.9826 18.4689L38.5057 5.17614V25.6442H3.74432V5.17614Z" fill="#737171" stroke="white" stroke-width="0.5"/>
</svg>
