<svg xmlns="http://www.w3.org/2000/svg" width="18" height="21" viewBox="0 0 18 21" fill="none">
    <path d="M3.32727 11.6173C3.32727 10.9747 2.80596 10.4537 2.16364 10.4537C1.52131 10.4537 1 10.975 1 11.6173V16.4179C1 18.3458 2.56364 19.9083 4.49091 19.9083H9.14575C11.0733 19.9083 12.6367 18.344 12.6367 16.4179V10.5992C12.6367 9.95567 12.1153 9.43553 11.4727 9.43553C10.8307 9.43553 10.3091 9.95567 10.3091 10.5992V11.7634V9.43553V9.43465C10.3091 8.79204 9.78778 8.27189 9.14575 8.27189C8.50313 8.27189 7.98182 8.79204 7.98182 9.43465V10.5992V8.27189V8.27102C7.98182 7.62869 7.4608 7.10738 6.81818 7.10738C6.17585 7.10738 5.65542 7.62869 5.65542 8.27102L5.65425 10.5992V3.61676H5.65571C5.65571 2.97443 5.1344 2.45312 4.4912 2.45312C3.84858 2.45312 3.32756 2.97443 3.32756 3.61676V14.0907V11.6173H3.32727Z" stroke="black" stroke-miterlimit="10" stroke-linecap="round" stroke-linejoin="round"/>
    <path d="M17 2.45312H8.27272H17Z" stroke="black" stroke-miterlimit="10" stroke-linecap="round" stroke-linejoin="round"/>
    <path d="M15.5457 3.90822L17 2.45396L15.5457 1L17 2.45396L15.5457 3.90822Z" stroke="black" stroke-miterlimit="10" stroke-linecap="round" stroke-linejoin="round"/>
    <path d="M9.7261 1L8.27272 2.45396L9.7261 3.90822L8.27272 2.45396L9.7261 1Z" stroke="black" stroke-miterlimit="10" stroke-linecap="round" stroke-linejoin="round"/>
</svg>
