<svg width="18" height="19" viewBox="0 0 18 19" fill="none" xmlns="http://www.w3.org/2000/svg">
    <path d="M14.5995 11.9091C13.9477 11.0993 13.5724 10.0919 13.5724 9.04505V7.03036C13.5724 4.64038 11.8935 2.62568 9.64178 2.13188V1.18379C9.64178 0.591234 9.16773 0.117188 8.57517 0.117188C7.98261 0.117188 7.50857 0.591234 7.50857 1.18379V2.13188C5.25685 2.62568 3.57794 4.62063 3.57794 7.03036V9.04505C3.57794 10.0919 3.2224 11.0993 2.55084 11.9091L1.662 12.9954C1.04969 13.746 1.58299 14.8916 2.55084 14.8916H14.5798C15.5476 14.8916 16.1007 13.7658 15.4686 12.9954L14.5995 11.9091Z" fill="#EC1E24"/>
    <path d="M1.80028 6.53519C1.91879 4.89578 2.62986 3.33538 3.83473 2.17001C4.19026 1.81448 4.19026 1.26143 3.85448 0.905892C3.5187 0.550357 2.94589 0.550357 2.59036 0.88614C1.06946 2.36753 0.16087 4.32297 0.00285454 6.39692C-0.0366493 6.89072 0.338637 7.32526 0.832435 7.34502C0.852187 7.34502 0.871939 7.34502 0.891691 7.34502C1.36574 7.36477 1.76078 7.00923 1.80028 6.53519Z" fill="#EC1E24"/>
    <path d="M14.5798 0.88614C14.2243 0.550357 13.6515 0.550357 13.3157 0.905892C12.9602 1.26143 12.9799 1.83423 13.3354 2.17001C14.5206 3.33538 15.2514 4.89578 15.3699 6.53519C15.4094 7.00923 15.8044 7.36477 16.2587 7.36477C16.2785 7.36477 16.2982 7.36477 16.318 7.36477C16.8118 7.32527 17.1871 6.91048 17.1476 6.41668C16.9896 4.32297 16.081 2.36753 14.5798 0.88614Z" fill="#EC1E24"/>
    <path d="M8.5752 18.8802C9.99733 18.8802 11.1429 17.7346 11.1429 16.3125H6.00745C6.00745 17.7346 7.15306 18.8802 8.5752 18.8802Z" fill="#EC1E24"/>
</svg>
