<svg width="32" height="35" viewBox="0 0 32 35" fill="none" xmlns="http://www.w3.org/2000/svg">
<path d="M29.9176 21.6884L28.8569 20.9569C27.138 19.75 26.0407 17.8482 25.8213 15.7634L25.675 13.8616C25.419 13.8982 25.1264 13.9347 24.8338 13.9347C24.1389 13.9347 23.4806 13.825 22.8588 13.6421L23.0782 16.056C23.2245 17.519 23.6634 18.9088 24.3949 20.1157C25.1264 21.3593 26.1139 22.4199 27.2843 23.2611L28.3449 23.9926C28.6375 24.212 28.8204 24.5412 28.8204 24.9435V26.1139H2.77963V24.9435C2.77963 24.5778 2.9625 24.212 3.25509 23.9926L4.31574 23.2611C6.72963 21.5787 8.26574 18.9454 8.52176 16.056L8.8875 11.9963C9.21667 8.37547 12.1792 5.66898 15.8 5.66898C16.7509 5.66898 17.6653 5.85185 18.5065 6.21759C18.6894 5.26667 19.0917 4.42546 19.6403 3.69398C18.8722 3.36482 18.0676 3.14537 17.1898 3.03565V1.38982C17.1898 0.62176 16.5681 0 15.8 0C15.0319 0 14.4102 0.62176 14.4102 1.38982V2.99907C10.0213 3.62083 6.54676 7.16852 6.10787 11.7037L5.74213 15.7634C5.55926 17.8847 4.46204 19.75 2.74306 20.9569L1.68241 21.6884C0.621759 22.4199 0 23.6269 0 24.9069V26.4065C0 27.7597 1.09722 28.857 2.45046 28.857H9.39954C9.69213 32.1486 12.4352 34.7454 15.8 34.7454C19.1648 34.7454 21.9445 32.1486 22.2005 28.857H29.1495C30.5028 28.857 31.6 27.7597 31.6 26.4065V24.9069C31.6 23.6269 30.9782 22.4199 29.9176 21.6884ZM15.8 31.9657C13.9713 31.9657 12.4352 30.6125 12.1792 28.857H19.4208C19.1648 30.6125 17.6287 31.9657 15.8 31.9657Z" fill="#737171"/>
<path d="M24.8335 11.6659C27.1564 11.6659 29.0395 9.78285 29.0395 7.45993C29.0395 5.13701 27.1564 3.25391 24.8335 3.25391C22.5105 3.25391 20.6274 5.13701 20.6274 7.45993C20.6274 9.78285 22.5105 11.6659 24.8335 11.6659Z" fill="#FB334B"/>
</svg>
