<svg width="36" height="42" viewBox="0 0 36 42" fill="none" xmlns="http://www.w3.org/2000/svg">
<path d="M27.5294 8.90788H34.8004C34.6649 8.69834 34.4843 8.48881 34.2585 8.27928L27.0778 1.61616C26.8972 1.44853 26.6714 1.28091 26.4004 1.11328V7.81831C26.4004 8.4469 26.8972 8.90788 27.5294 8.90788Z" fill="#EC1E24"/>
<path d="M16.5206 15.7548C16.4699 15.6723 16.3685 15.5898 16.0641 15.5898C15.7598 15.5898 15.709 15.6723 15.709 15.7136C15.4047 16.2909 15.7598 17.5694 16.4699 18.9304C16.9264 17.1983 16.8757 16.1672 16.5206 15.7548Z" fill="#EC1E24"/>
<path d="M27.7862 11.5916C25.3924 11.5916 23.4681 9.81159 23.4681 7.59747V0H4.17731C3.05085 0 2.01825 0.390727 1.22034 1.12877C0.422425 1.86681 0 2.82192 0 3.86386V37.3361C0 39.4634 1.87744 41.2 4.17731 41.2H31.8227C34.1226 41.2 36 39.4634 36 37.3361V11.5916H27.7862ZM27.927 27.6114C27.2699 28.2192 26.3781 28.5665 25.4863 28.5665C24.1721 28.5665 22.6232 27.8719 20.8866 26.5694C19.9478 26.7431 18.9153 27.0036 17.6949 27.3075C16.6623 27.568 15.7705 27.8719 14.9726 28.1324C13.5645 30.4767 11.734 32.8645 9.99739 33.2552C9.80965 33.2986 9.6219 33.342 9.43416 33.342C8.9648 33.342 8.54237 33.2118 8.16688 32.9079C7.55672 32.4303 7.2751 31.7791 7.41591 31.0845C7.79139 29.3045 10.8892 27.785 13.7053 26.7431C14.0808 26.0919 14.4094 25.3973 14.7379 24.7026C15.3012 23.4002 15.7705 22.228 16.0991 21.2295C14.7849 18.972 13.7053 16.1935 14.4563 14.674C14.8318 13.9359 15.5359 13.5018 16.4746 13.5018C17.3194 13.5018 17.9765 13.8057 18.399 14.4135C19.2438 15.5423 19.103 17.7564 18.0704 21.0558C18.5398 21.7939 19.0561 22.4885 19.5254 22.9661C20.1825 23.6173 20.8396 24.2251 21.4498 24.7026C25.2047 24.0948 27.6923 24.3553 28.4433 25.4841C28.5372 25.7446 28.9596 26.6129 27.927 27.6114Z" fill="#EC1E24"/>
<path d="M16.9632 23.3867C16.636 23.9349 16.3087 24.5174 15.9269 25.1341C15.8178 25.3054 15.7087 25.4424 15.5996 25.6137C16.0905 25.511 16.4723 25.4424 16.8542 25.3739C17.6723 25.2369 18.4905 25.0998 19.1996 24.9628C18.7632 24.7229 18.3814 24.4488 17.9451 24.1405C17.6723 23.9692 17.3451 23.6951 16.9632 23.3867Z" fill="#EC1E24"/>
<path d="M9.59961 30.9732C9.71764 31.1794 9.75699 31.1794 9.87502 31.1794C10.4258 31.0145 11.2127 30.1896 11.9996 28.9524C10.4258 29.7772 9.6783 30.5608 9.59961 30.9732Z" fill="#EC1E24"/>
<path d="M22.8008 25.7594C23.68 26.3571 24.4557 26.7157 25.128 26.7157C25.6969 26.7755 26.1107 26.5962 26.3693 26.118C26.6278 25.6398 25.2832 25.4605 22.8008 25.7594Z" fill="#EC1E24"/>
</svg>
