<svg width="12" height="10" viewBox="0 0 12 10" fill="none" xmlns="http://www.w3.org/2000/svg">
<path d="M8.74822 1.00003C8.72187 1.00027 8.69487 1.00074 8.66835 1.0035C8.45618 1.0256 8.24344 1.12857 8.07799 1.29521L6.26872 3.11838C6.24753 3.13898 6.23066 3.1636 6.2191 3.1908C6.20754 3.218 6.20152 3.24724 6.20139 3.27679C6.20127 3.30635 6.20704 3.33563 6.21836 3.36293C6.22969 3.39023 6.24635 3.41499 6.26736 3.43578C6.28838 3.45656 6.31333 3.47294 6.34075 3.48397C6.36817 3.495 6.39752 3.50044 6.42707 3.49999C6.45662 3.49954 6.48579 3.49319 6.51286 3.48133C6.53993 3.46947 6.56436 3.45234 6.58473 3.43092L8.39053 1.60775C8.58697 1.4099 8.82639 1.40734 8.93227 1.51399L10.2658 2.85445C10.3717 2.9611 10.3685 3.20528 10.172 3.40314L7.314 6.282C7.11757 6.47987 6.87813 6.48241 6.77226 6.37576L5.53598 5.12907C5.51526 5.10817 5.49062 5.09158 5.46347 5.08023C5.43632 5.06889 5.4072 5.06301 5.37778 5.06295C5.34835 5.06289 5.31921 5.06864 5.29201 5.07987C5.26481 5.0911 5.2401 5.1076 5.2193 5.1284C5.19849 5.14921 5.182 5.17392 5.17077 5.20111C5.15954 5.22831 5.15379 5.25746 5.15385 5.28688C5.15391 5.3163 5.15978 5.34543 5.17113 5.37257C5.18247 5.39972 5.19907 5.42436 5.21996 5.44508L6.45971 6.68831C6.77569 7.00658 7.29912 6.92783 7.63001 6.59454L10.4846 3.71915C10.8155 3.38586 10.8978 2.86018 10.5818 2.54191L9.24829 1.19798C9.11005 1.05873 8.93267 0.998401 8.74822 1.00003ZM4.8206 3.10796C4.79425 3.1081 4.76725 3.10867 4.74073 3.11143C4.52856 3.13352 4.31582 3.23649 4.15037 3.40314L1.29582 6.282C0.964928 6.6153 0.882603 7.13749 1.19858 7.45577L2.5321 8.7997C2.84808 9.11796 3.3715 9.03576 3.70239 8.70247L5.51167 6.88278C5.55357 6.84087 5.57712 6.78403 5.57712 6.72477C5.57712 6.6655 5.55357 6.60867 5.51167 6.56676C5.46976 6.52486 5.41293 6.50131 5.35366 6.50131C5.2944 6.50131 5.23756 6.52486 5.19565 6.56676L3.38985 8.38993C3.19342 8.58778 2.95399 8.59381 2.84811 8.48716L1.5146 7.14323C1.40871 7.03658 1.41192 6.7924 1.60836 6.59454L4.46639 3.71915C4.66282 3.5213 4.90224 3.51527 5.00813 3.62192L6.24441 4.86861C6.26477 4.89003 6.28921 4.90717 6.31628 4.91903C6.34335 4.93089 6.37252 4.93723 6.40207 4.93768C6.43162 4.93814 6.46097 4.93269 6.48839 4.92167C6.51581 4.91064 6.54076 4.89426 6.56177 4.87347C6.58279 4.85269 6.59945 4.82792 6.61077 4.80063C6.6221 4.77333 6.62787 4.74404 6.62775 4.71449C6.62762 4.68493 6.6216 4.6557 6.61004 4.6285C6.59848 4.6013 6.58161 4.57667 6.56042 4.55607L5.32067 3.30937C5.18243 3.17013 5.00505 3.10699 4.8206 3.10796Z" fill="#989898" stroke="#989898" stroke-width="0.5"/>
</svg>
