<svg width="53" height="45" viewBox="0 0 53 45" fill="none" xmlns="http://www.w3.org/2000/svg">
    <path d="M50.625 0H1.875C1.37772 0 0.900805 0.197544 0.549175 0.549175C0.197544 0.900806 0 1.37772 0 1.875V13.125C0 13.6223 0.197544 14.0992 0.549175 14.4508C0.900805 14.8025 1.37772 15 1.875 15H3.75V43.125C3.75 43.6223 3.94754 44.0992 4.29918 44.4508C4.65081 44.8025 5.12772 45 5.625 45H46.875C47.3723 45 47.8492 44.8025 48.2008 44.4508C48.5525 44.0992 48.75 43.6223 48.75 43.125V15H50.625C51.1223 15 51.5992 14.8025 51.9508 14.4508C52.3025 14.0992 52.5 13.6223 52.5 13.125V1.875C52.5 1.37772 52.3025 0.900806 51.9508 0.549175C51.5992 0.197544 51.1223 0 50.625 0ZM45 41.25H7.5V15H20.625V20.625C20.625 21.1223 20.8225 21.5992 21.1742 21.9508C21.5258 22.3025 22.0027 22.5 22.5 22.5H30C30.4973 22.5 30.9742 22.3025 31.3258 21.9508C31.6775 21.5992 31.875 21.1223 31.875 20.625V15H45V41.25ZM24.375 15H28.125V18.75H24.375V15ZM48.75 11.25H3.75V3.75H48.75V11.25Z" fill="black"/>
</svg>
