<svg width="18" height="23" viewBox="0 0 18 23" fill="none" xmlns="http://www.w3.org/2000/svg">
<path d="M9.69061 3.55437C9.68598 3.53955 9.6832 3.52473 9.67672 3.5099C9.67023 3.49415 9.66189 3.48025 9.65355 3.46636C9.64707 3.45524 9.64244 3.44412 9.63595 3.433C9.61927 3.40799 9.60074 3.38575 9.58036 3.36444L7.34656 1.13064C7.17238 0.956454 6.88886 0.956454 6.71468 1.13064C6.5405 1.30482 6.5405 1.58833 6.71468 1.76251L8.2499 3.29773C4.1705 3.7999 1 7.28448 1 11.4982C1 14.9235 3.15505 18.0338 6.36261 19.2373C6.41449 19.2568 6.4673 19.266 6.51919 19.266C6.69986 19.266 6.87033 19.1549 6.93797 18.976C7.02506 18.7453 6.90739 18.4878 6.67669 18.4007C3.81565 17.3278 1.89315 14.5538 1.89315 11.4982C1.89315 7.83297 4.58279 4.78477 8.09147 4.22146L6.71468 5.59824C6.5405 5.77243 6.5405 6.05501 6.71468 6.23012C6.80177 6.31721 6.91666 6.36076 7.03062 6.36076C7.14458 6.36076 7.25947 6.31721 7.34656 6.23012L9.58036 3.99632C9.60167 3.97501 9.6202 3.95277 9.63595 3.92776C9.64336 3.91756 9.648 3.90552 9.65355 3.8944C9.66189 3.87958 9.67023 3.86568 9.67672 3.85086C9.68228 3.83603 9.68598 3.82121 9.69061 3.80638C9.69432 3.79341 9.69988 3.78137 9.70173 3.76747C9.71285 3.71003 9.71285 3.65073 9.70173 3.59236C9.69988 3.57939 9.69432 3.56735 9.69061 3.55437Z" fill="#827E7E" stroke="#827E7E" stroke-width="0.25"/>
<path d="M17.5294 11.4999C17.5294 8.07462 15.3743 4.96434 12.1667 3.76081C11.936 3.67465 11.6785 3.79139 11.5914 4.02209C11.5043 4.25279 11.622 4.51035 11.8527 4.59745C14.7137 5.67127 16.6353 8.44522 16.6353 11.5008C16.6353 15.1661 13.9456 18.2143 10.437 18.7776L11.8137 17.4008C11.9879 17.2266 11.9879 16.944 11.8137 16.7689C11.6396 16.5948 11.3561 16.5948 11.1819 16.7689L8.94807 19.0027C8.92676 19.0231 8.90823 19.0463 8.89248 19.0713C8.88507 19.0815 8.88044 19.0935 8.87488 19.1047C8.86654 19.1195 8.8582 19.1334 8.85171 19.1482C8.84523 19.163 8.84245 19.1779 8.83782 19.1927C8.83411 19.2056 8.82855 19.2177 8.8267 19.2316C8.81558 19.289 8.81558 19.3483 8.8267 19.4067C8.82948 19.4197 8.83411 19.4326 8.83782 19.4456C8.84245 19.4604 8.84523 19.4753 8.85171 19.4901C8.8582 19.5058 8.86654 19.5197 8.87488 19.5336C8.88136 19.5447 8.88599 19.5559 8.89248 19.567C8.90916 19.592 8.92769 19.6142 8.94807 19.6355L11.1819 21.8693C11.269 21.9564 11.3839 22 11.4978 22C11.6118 22 11.7267 21.9564 11.8137 21.8693C11.9879 21.6952 11.9879 21.4126 11.8137 21.2375L10.2785 19.7023C14.3589 19.1982 17.5294 15.7137 17.5294 11.4999Z" fill="#827E7E" stroke="#827E7E" stroke-width="0.25"/>
</svg>
