<svg width="20" height="20" viewBox="0 0 20 20" fill="none" xmlns="http://www.w3.org/2000/svg">
<path d="M2.27262 2.27691C3.74062 0.808902 5.69224 0 7.77227 0C9.85229 0 11.8039 0.808902 13.2719 2.27691C15.9854 4.99037 16.2978 9.35159 13.9952 12.4246C13.931 12.5102 13.9396 12.6343 14.0209 12.707L19.6318 17.9799C19.8629 18.1982 19.9956 18.4935 19.9999 18.8145C20.0042 19.1312 19.8843 19.4351 19.6575 19.6576C19.4307 19.8844 19.1311 19.9914 18.8144 20C18.4934 19.9957 18.1981 19.863 17.9798 19.6319L12.707 14.021C12.6342 13.9439 12.5101 13.9311 12.4245 13.9953C9.35154 16.2979 4.99034 15.9854 2.2769 13.272C0.808899 11.804 0 9.85234 0 7.77231C0 5.69227 0.804619 3.74492 2.27262 2.27691ZM7.76799 14.0681C11.239 14.0681 14.0637 11.2433 14.0637 7.77231C14.0637 4.30131 11.239 1.47657 7.76799 1.47657C4.297 1.47657 1.47228 4.30131 1.47228 7.77231C1.47228 11.2433 4.297 14.0681 7.76799 14.0681Z" fill="#827E7E"/>
</svg>
