<svg width="20" height="20" viewBox="0 0 20 20" fill="none" xmlns="http://www.w3.org/2000/svg">
<path d="M17.4608 2.54215C16.0434 1.12476 14.1591 0.34375 12.1508 0.34375C10.1425 0.34375 8.25819 1.12476 6.84081 2.54215C4.22093 5.16204 3.91927 9.37288 6.14245 12.3399C6.20443 12.4225 6.19617 12.5424 6.11766 12.6126L0.700211 17.7036C0.477067 17.9144 0.348966 18.1995 0.344834 18.5094C0.340701 18.8152 0.456406 19.1086 0.675418 19.3235C0.89443 19.5425 1.18369 19.6458 1.48948 19.6541C1.7994 19.65 2.08453 19.5219 2.29528 19.2987L7.38627 13.8812C7.45652 13.8069 7.57636 13.7945 7.659 13.8564C10.626 16.0796 14.8368 15.778 17.4567 13.1581C18.8741 11.7407 19.6551 9.85636 19.6551 7.84805C19.6551 5.83974 18.8782 3.95953 17.4608 2.54215ZM12.1549 13.9267C8.80365 13.9267 6.07633 11.1994 6.07633 7.84805C6.07633 4.49673 8.80365 1.7694 12.1549 1.7694C15.5062 1.7694 18.2336 4.49673 18.2336 7.84805C18.2336 11.1994 15.5062 13.9267 12.1549 13.9267Z" fill="white"/>
</svg>
