<svg width="19" height="19" viewBox="0 0 19 19" fill="none" xmlns="http://www.w3.org/2000/svg">
<path d="M18.4954 0.504577C18.3084 0.317546 18.0289 0.261109 17.7847 0.360202L0.722225 7.27773C0.463006 7.38273 0.298944 7.63933 0.313381 7.91823C0.327163 8.19714 0.515506 8.43667 0.783256 8.51542L8.27894 10.7198L10.4839 18.2161C10.562 18.4839 10.8016 18.6722 11.0805 18.6866C11.0923 18.6873 11.1028 18.6873 11.1139 18.6873C11.3797 18.6873 11.6212 18.5265 11.7223 18.2778L18.6398 1.2153C18.7389 0.970515 18.6818 0.690952 18.4954 0.504577ZM2.95938 7.78698L15.2792 2.79292L8.62019 9.45189L2.95938 7.78698ZM11.2124 16.0413L9.54748 10.3798L16.2084 3.71955L11.2124 16.0413Z" fill="white"/>
</svg>
