<svg xmlns="http://www.w3.org/2000/svg" width="22" height="16" viewBox="0 0 22 16" fill="none">
    <path d="M13.75 1.00049V10.0005H13.5625L10.9844 1.84424C10.9189 1.64536 10.7172 1.49981 10.5078 1.50049H6C5.72781 1.50049 5.5 1.77516 5.5 2.00049V8.25049H0.5C0.227686 8.25049 0 8.52499 0 8.75049V13.2505C2.625e-05 13.5123 0.238208 13.7505 0.5 13.7505H1.75C1.75 14.9872 2.76328 16.0005 4 16.0005C5.23672 16.0005 6.25 14.9872 6.25 13.7505H8.5C8.5 14.9872 9.51328 16.0005 10.75 16.0005C11.9867 16.0005 13 14.9872 13 13.7505H13.75V14.2505C13.75 14.5123 13.9882 14.7505 14.25 14.7505H21.5C21.7642 14.7542 22 14.5147 22 14.2505C22 13.9863 21.7642 13.7468 21.5 13.7505H14.75V1.00049C14.75 0.730938 14.5413 0.500488 14.25 0.500488C13.9785 0.500488 13.75 0.777588 13.75 1.00049ZM6.5 2.50049H10.1406L12.5156 10.0005H10.9219L8.86719 8.35986C8.77931 8.28966 8.66717 8.25041 8.55469 8.25049H6.5V2.50049ZM1 9.25049H8.38281L10.4375 10.8911C10.5254 10.9613 10.6375 11.0006 10.75 11.0005H13.75V12.7505H12.7578C12.3888 12.0134 11.6277 11.5005 10.75 11.5005C9.87232 11.5005 9.11341 12.0134 8.74219 12.7505H6.00781C5.63877 12.0134 4.87768 11.5005 4 11.5005C3.12232 11.5005 2.36341 12.0134 1.99219 12.7505H1V9.25049ZM4 12.5005C4.69628 12.5005 5.25 13.0542 5.25 13.7505C5.25 14.4468 4.69628 15.0005 4 15.0005C3.30372 15.0005 2.75 14.4468 2.75 13.7505C2.75 13.0542 3.30372 12.5005 4 12.5005ZM10.75 12.5005C11.4463 12.5005 12 13.0542 12 13.7505C12 14.4468 11.4463 15.0005 10.75 15.0005C10.0537 15.0005 9.5 14.4468 9.5 13.7505C9.5 13.0542 10.0537 12.5005 10.75 12.5005ZM4 13.2505C3.72386 13.2505 3.5 13.4743 3.5 13.7505C3.5 14.0266 3.72386 14.2505 4 14.2505C4.27614 14.2505 4.5 14.0266 4.5 13.7505C4.5 13.4743 4.27614 13.2505 4 13.2505ZM10.75 13.2505C10.4739 13.2505 10.25 13.4743 10.25 13.7505C10.25 14.0266 10.4739 14.2505 10.75 14.2505C11.0261 14.2505 11.25 14.0266 11.25 13.7505C11.25 13.4743 11.0261 13.2505 10.75 13.2505Z" fill="white"/>
</svg>
