<svg width="57" height="57" viewBox="0 0 57 57" fill="none" xmlns="http://www.w3.org/2000/svg">
    <path d="M45.8346 56C45.3253 55.9916 44.8244 55.869 44.3688 55.6413C43.9132 55.4137 43.5144 55.0867 43.2018 54.6846C42.7212 54.1804 42.486 53.9576 41.9415 53.9576C41.397 53.9576 41.1627 54.1804 40.6821 54.6846C40.3754 55.093 39.978 55.4244 39.5211 55.6528C39.0643 55.8811 38.5606 55.9999 38.0499 56C37.5392 56 37.0354 55.8812 36.5785 55.653C36.1217 55.4248 35.7241 55.0934 35.4174 54.685C34.9368 54.1807 34.7017 53.9576 34.1571 53.9576C33.6125 53.9576 33.3784 54.1804 32.8977 54.6846C32.5912 55.093 32.1938 55.4245 31.737 55.6528C31.2802 55.8811 30.7765 56 30.2658 56C29.7552 56 29.2515 55.8811 28.7947 55.6528C28.3379 55.4245 27.9405 55.093 27.634 54.6846C27.1534 54.1804 26.9182 53.9576 26.3746 53.9576C25.8309 53.9576 25.5948 54.1804 25.1142 54.6846C24.8072 55.093 24.4094 55.4244 23.9523 55.6527C23.4952 55.881 22.9912 55.9999 22.4803 56C21.9693 56.0001 21.4654 55.8814 21.0082 55.6532C20.551 55.4251 20.1531 55.0938 19.8459 54.6855C19.3644 54.1807 19.1282 53.9576 18.5828 53.9576C17.8776 54.104 17.2228 54.4321 16.6835 54.9095C15.7362 55.5828 14.1516 56.7102 12.9811 55.1808C11.6156 53.3921 12.8746 51.972 13.709 51.0321C14.3398 50.4948 14.7566 49.7488 14.8836 48.93C14.8791 48.5644 14.796 48.204 14.6401 47.8733C14.4842 47.5426 14.259 47.2492 13.9798 47.0131C13.5412 46.6063 13.1912 46.1134 12.9519 45.5652C12.7126 45.017 12.589 44.4253 12.5889 43.8271C12.5889 43.2289 12.7123 42.6372 12.9514 42.0889C13.1906 41.5406 13.5403 41.0476 13.9788 40.6407C14.2617 40.4074 14.4895 40.1144 14.6459 39.7828C14.8023 39.4511 14.8834 39.089 14.8835 38.7224C14.8836 38.3557 14.8027 37.9935 14.6464 37.6618C14.4902 37.3301 14.2625 37.037 13.9798 36.8036C13.5411 36.3968 13.1912 35.9038 12.9518 35.3555C12.7125 34.8073 12.5889 34.2155 12.5888 33.6172C12.5887 33.019 12.7121 32.4272 12.9513 31.8788C13.1905 31.3305 13.5403 30.8374 13.9788 30.4305C14.2618 30.1971 14.4896 29.9041 14.646 29.5723C14.8025 29.2406 14.8836 28.8783 14.8836 28.5115C14.8836 28.1447 14.8025 27.7825 14.646 27.4507C14.4896 27.119 14.2618 26.8259 13.9788 26.5925C13.5403 26.1856 13.1905 25.6925 12.9513 25.1442C12.7121 24.5959 12.5887 24.004 12.5888 23.4058C12.5889 22.8076 12.7125 22.2158 12.9518 21.6675C13.1912 21.1192 13.5411 20.6263 13.9798 20.2195C14.2625 19.9859 14.4902 19.6927 14.6465 19.3609C14.8027 19.029 14.8837 18.6668 14.8836 18.3C14.8835 17.9332 14.8023 17.571 14.6459 17.2392C14.4895 16.9075 14.2617 16.6144 13.9788 16.3809C13.5404 15.9736 13.1907 15.4801 12.9515 14.9315C12.7124 14.3829 12.5889 13.7908 12.5889 13.1923C12.5889 12.5938 12.7124 12.0018 12.9515 11.4531C13.1907 10.9045 13.5404 10.4111 13.9788 10.0037C14.2585 9.76677 14.4841 9.4725 14.6402 9.14083C14.7963 8.80915 14.8793 8.4478 14.8836 8.08125C14.7573 7.2608 14.3399 6.51322 13.7077 5.97522C12.8752 5.03529 11.6157 3.61468 12.9789 1.82282C14.143 0.291543 15.7289 1.41762 16.6771 2.09137C17.2152 2.56813 17.8685 2.89598 18.5724 3.0424C19.115 3.0424 19.3499 2.81965 19.8299 2.31545C20.1365 1.90705 20.534 1.57562 20.9909 1.34735C21.4478 1.11908 21.9515 1.00025 22.4622 1.00025C22.9729 1.00025 23.4766 1.11908 23.9335 1.34735C24.3903 1.57562 24.7878 1.90705 25.0945 2.31545C25.5751 2.81974 25.8104 3.04287 26.3549 3.04287C26.8994 3.04287 27.1346 2.81974 27.6152 2.31545C27.9219 1.90705 28.3194 1.57562 28.7762 1.34735C29.2331 1.11908 29.7368 1.00025 30.2475 1.00025C30.7582 1.00025 31.262 1.11908 31.7188 1.34735C32.1757 1.57562 32.5732 1.90705 32.8798 2.31545C33.3604 2.81965 33.5956 3.0424 34.1393 3.0424C34.6829 3.0424 34.9181 2.81965 35.3987 2.31545C35.7052 1.907 36.1026 1.57549 36.5594 1.34718C37.0162 1.11886 37.5198 1 38.0305 1C38.5412 1 39.0448 1.11886 39.5016 1.34718C39.9584 1.57549 40.3558 1.907 40.6623 2.31545C41.1429 2.81974 41.3782 3.04287 41.9227 3.04287C42.4672 3.04287 42.7015 2.82012 43.1821 2.31592C43.4891 1.9075 43.8869 1.57606 44.344 1.34777C44.8012 1.11948 45.3051 1.00059 45.816 1.0005C46.327 1.00041 46.831 1.11911 47.2882 1.34724C47.7454 1.57537 48.1433 1.90667 48.4504 2.31497C48.932 2.81974 49.1681 3.04287 49.7145 3.04287C50.42 2.89637 51.0748 2.56785 51.6141 2.08995C52.5606 1.41762 54.146 0.29069 55.3155 1.81912C56.6824 3.60728 55.422 5.0279 54.5885 5.96783C53.9579 6.50524 53.5413 7.25121 53.4144 8.06997C53.4189 8.43559 53.5019 8.79596 53.6579 9.1267C53.8138 9.45743 54.039 9.75079 54.3182 9.98691C54.7568 10.3937 55.1067 10.8866 55.346 11.4348C55.5853 11.983 55.7089 12.5747 55.709 13.1729C55.7091 13.7711 55.5857 14.3628 55.3465 14.9111C55.1074 15.4594 54.7576 15.9524 54.3191 16.3593C54.0363 16.5926 53.8085 16.8856 53.6521 17.2172C53.4957 17.5489 53.4145 17.911 53.4144 18.2776C53.4143 18.6443 53.4953 19.0065 53.6515 19.3382C53.8078 19.6699 54.0354 19.963 54.3182 20.1964C54.7568 20.6032 55.1068 21.0962 55.3461 21.6445C55.5855 22.1927 55.709 22.7845 55.7091 23.3828C55.7092 23.981 55.5858 24.5728 55.3466 25.1212C55.1075 25.6695 54.7577 26.1626 54.3191 26.5695C54.0362 26.8029 53.8083 27.0959 53.6519 27.4277C53.4955 27.7594 53.4144 28.1217 53.4144 28.4885C53.4144 28.8553 53.4955 29.2175 53.6519 29.5493C53.8083 29.881 54.0362 30.1741 54.3191 30.4075C54.7577 30.8144 55.1075 31.3075 55.3466 31.8558C55.5858 32.4041 55.7092 32.996 55.7091 33.5942C55.709 34.1924 55.5855 34.7842 55.3461 35.3325C55.1068 35.8808 54.7568 36.3737 54.3182 36.7805C54.0354 37.0141 53.8077 37.3073 53.6515 37.6391C53.4952 37.971 53.4143 38.3332 53.4144 38.7C53.4144 39.0668 53.4956 39.429 53.652 39.7608C53.8084 40.0925 54.0362 40.3856 54.3191 40.6191C54.7572 41.0266 55.1066 41.52 55.3458 42.0684C55.5849 42.6169 55.7086 43.2087 55.7091 43.807C55.6867 44.4214 55.5391 45.0247 55.2754 45.5801C55.0117 46.1355 54.6375 46.6312 54.1756 47.037C53.4662 47.8038 53.1884 48.1455 53.4134 48.9095C53.7004 49.7653 54.1859 50.5411 54.8302 51.1733C55.6341 52.0771 56.7351 53.3148 55.3183 55.177C54.1534 56.7064 52.5683 55.5808 51.6206 54.9084C51.0823 54.4318 50.4289 54.1039 49.7249 53.9574C49.1814 53.9574 48.9461 54.1802 48.4655 54.6844C48.1534 55.0866 47.755 55.4136 47.2996 55.6413C46.8443 55.869 46.3437 55.9916 45.8346 56ZM41.9415 52.0611C42.4507 52.0695 42.9516 52.1921 43.4072 52.4197C43.8628 52.6474 44.2616 52.9743 44.5741 53.3765C45.0547 53.8807 45.2899 54.1034 45.8344 54.1034C46.3771 54.1034 46.612 53.8807 47.092 53.3765C47.4046 52.9744 47.8034 52.6475 48.259 52.4198C48.7146 52.1922 49.2155 52.0696 49.7247 52.0611C50.8322 52.1776 51.8771 52.6318 52.7178 53.3622C53.0538 53.6266 53.4196 53.8508 53.8077 54.0303L53.8087 54.0289C54.2624 53.4321 54.2476 53.3723 53.4132 52.4342C52.5822 51.5938 51.9593 50.5706 51.5944 49.4464C51.4111 48.7813 51.4259 48.0772 51.637 47.4205C51.8481 46.7637 52.2463 46.1828 52.7827 45.7491C53.0792 45.514 53.3238 45.2201 53.501 44.8858C53.6783 44.5515 53.7844 44.1841 53.8126 43.8068C53.8082 43.4406 53.7252 43.0796 53.5691 42.7483C53.413 42.417 53.1874 42.1231 52.9078 41.8866C52.4693 41.4796 52.1195 40.9864 51.8803 40.438C51.6412 39.8896 51.5177 39.2977 51.5178 38.6994C51.5179 38.1011 51.6415 37.5092 51.8808 36.9609C52.1202 36.4125 52.4701 35.9195 52.9088 35.5126C53.1915 35.2791 53.4192 34.986 53.5754 34.6542C53.7317 34.3225 53.8126 33.9603 53.8126 33.5936C53.8125 33.2269 53.7313 32.8647 53.5749 32.533C53.4185 32.2014 53.1907 31.9084 52.9078 31.675C52.4694 31.268 52.1196 30.7749 51.8805 30.2266C51.6413 29.6783 51.5178 29.0865 51.5178 28.4882C51.5178 27.89 51.6413 27.2982 51.8805 26.7499C52.1196 26.2015 52.4694 25.7085 52.9078 25.3015C53.1908 25.0681 53.4186 24.7751 53.575 24.4434C53.7314 24.1117 53.8126 23.7495 53.8126 23.3827C53.8126 23.016 53.7314 22.6538 53.575 22.322C53.4186 21.9903 53.1908 21.6973 52.9078 21.464C52.4694 21.0571 52.1197 20.5641 51.8805 20.0159C51.6414 19.4676 51.5179 18.8759 51.5179 18.2778C51.5179 17.6796 51.6414 17.0879 51.8805 16.5397C52.1197 15.9914 52.4694 15.4985 52.9078 15.0916C53.1907 14.8583 53.4185 14.5654 53.5749 14.2338C53.7313 13.9022 53.8125 13.5401 53.8126 13.1735C53.8127 12.8068 53.7317 12.4447 53.5754 12.113C53.4192 11.7814 53.1915 11.4883 52.9088 11.2549C52.4706 10.848 52.121 10.3552 51.8817 9.80717C51.6424 9.25917 51.5185 8.66775 51.5178 8.06978C51.6181 6.77942 52.2094 5.57664 53.1698 4.70909C54.1487 3.60615 54.1635 3.43536 53.8089 2.9709C53.6264 2.93666 53.0874 3.36917 52.7124 3.6363C51.8703 4.36745 50.8239 4.82213 49.7148 4.93876C49.2051 4.93032 48.7037 4.80782 48.2475 4.58027C47.7913 4.35272 47.3919 4.0259 47.0786 3.62378C46.5968 3.11978 46.3606 2.89655 45.8152 2.89655C45.2697 2.89655 45.0354 3.11978 44.5548 3.62397C44.2482 4.03237 43.8507 4.36381 43.3938 4.59207C42.9369 4.82034 42.4332 4.93917 41.9225 4.93917C41.4118 4.93917 40.9081 4.82034 40.4512 4.59207C39.9944 4.36381 39.5969 4.03237 39.2902 3.62397C38.8096 3.1193 38.5743 2.89655 38.031 2.89655C37.4876 2.89655 37.2522 3.1193 36.7716 3.6235C36.465 4.03195 36.0677 4.36346 35.6109 4.59177C35.1541 4.82009 34.6504 4.93895 34.1397 4.93895C33.629 4.93895 33.1254 4.82009 32.6686 4.59177C32.2118 4.36346 31.8144 4.03195 31.5079 3.6235C31.0271 3.11978 30.7918 2.89655 30.2473 2.89655C29.7028 2.89655 29.4685 3.1193 28.9879 3.6235C28.6812 4.03197 28.2837 4.36347 27.8267 4.59178C27.3698 4.82009 26.866 4.93895 26.3551 4.93895C25.8443 4.93895 25.3405 4.82009 24.8836 4.59178C24.4266 4.36347 24.0291 4.03197 23.7223 3.6235C23.2418 3.1193 23.0066 2.89655 22.4629 2.89655C21.9193 2.89655 21.6841 3.1193 21.2035 3.6235C20.8914 4.0257 20.4929 4.35269 20.0375 4.58036C19.5821 4.80803 19.0814 4.93057 18.5724 4.93895C17.4646 4.82237 16.4195 4.36801 15.5786 3.63744C15.2435 3.37456 14.8794 3.15099 14.4933 2.97109C14.134 3.4494 14.1739 3.64114 15.1277 4.71667C16.0886 5.58546 16.68 6.78951 16.7801 8.08106C16.7796 8.67958 16.6559 9.27158 16.4167 9.82025C16.1776 10.3689 15.8282 10.8625 15.3901 11.2704C15.1071 11.5042 14.8793 11.7977 14.7229 12.1299C14.5665 12.462 14.4854 12.8246 14.4854 13.1917C14.4854 13.5588 14.5665 13.9214 14.7229 14.2535C14.8793 14.5857 15.1071 14.8792 15.3901 15.113C15.8286 15.52 16.1784 16.0132 16.4176 16.5616C16.6568 17.11 16.7802 17.7019 16.7801 18.3002C16.78 18.8985 16.6565 19.4903 16.4171 20.0387C16.1778 20.5871 15.8279 21.0801 15.3893 21.487C15.1065 21.7205 14.8788 22.0136 14.7226 22.3454C14.5663 22.6771 14.4853 23.0393 14.4854 23.406C14.4855 23.7727 14.5666 24.1349 14.723 24.4666C14.8794 24.7983 15.1072 25.0913 15.3901 25.3246C15.8286 25.7316 16.1783 26.2247 16.4175 26.773C16.6567 27.3214 16.7801 27.9132 16.7801 28.5114C16.7801 29.1096 16.6567 29.7014 16.4175 30.2497C16.1783 30.7981 15.8286 31.2912 15.3901 31.6982C15.1072 31.9315 14.8793 32.2245 14.7229 32.5562C14.5665 32.8879 14.4854 33.2501 14.4854 33.6169C14.4854 33.9836 14.5665 34.3459 14.7229 34.6776C14.8793 35.0093 15.1072 35.3023 15.3901 35.5356C15.8285 35.9425 16.1783 36.4355 16.4174 36.9838C16.6566 37.532 16.78 38.1237 16.78 38.7218C16.78 39.32 16.6566 39.9117 16.4174 40.4599C16.1783 41.0082 15.8285 41.5012 15.3901 41.9081C15.1072 42.1413 14.8794 42.4342 14.723 42.7658C14.5666 43.0974 14.4854 43.4595 14.4854 43.8262C14.4853 44.1928 14.5663 44.5549 14.7225 44.8866C14.8788 45.2183 15.1065 45.5113 15.3893 45.7447C15.8274 46.1517 16.177 46.6445 16.4163 47.1926C16.6556 47.7406 16.7795 48.332 16.7801 48.93C16.6798 50.2204 16.0886 51.4232 15.1281 52.2907C14.1492 53.3941 14.1344 53.5649 14.4891 54.0289L14.491 54.0294C14.8848 53.8593 15.2531 53.6353 15.5853 53.3638C16.4274 52.6327 17.4738 52.178 18.5829 52.0613C19.0924 52.0698 19.5935 52.1922 20.0495 52.4196C20.5055 52.647 20.9048 52.9737 21.218 53.3755C21.6996 53.8802 21.9357 54.1034 22.4811 54.1034C23.0266 54.1034 23.2609 53.8807 23.7415 53.3765C24.0481 52.968 24.4456 52.6365 24.9025 52.4082C25.3593 52.1799 25.8631 52.0611 26.3738 52.0611C26.8846 52.0611 27.3883 52.1799 27.8452 52.4082C28.302 52.6365 28.6995 52.968 29.0061 53.3765C29.4867 53.8807 29.722 54.1034 30.2655 54.1034C30.8091 54.1034 31.0444 53.8807 31.525 53.3765C31.8317 52.968 32.2291 52.6365 32.686 52.4082C33.1429 52.1799 33.6466 52.0611 34.1573 52.0611C34.6681 52.0611 35.1718 52.1799 35.6286 52.4082C36.0855 52.6365 36.483 52.968 36.7896 53.3765C37.2702 53.8807 37.5054 54.1034 38.049 54.1034C38.5925 54.1034 38.8288 53.8802 39.3093 53.376C39.6219 52.9741 40.0206 52.6473 40.4761 52.4197C40.9316 52.1921 41.4324 52.0696 41.9415 52.0611Z" fill="black" stroke="black" stroke-width="0.7"/>
    <path d="M47.4658 48.4138H20.9141C20.6626 48.4138 20.4214 48.3139 20.2436 48.136C20.0657 47.9582 19.9658 47.717 19.9658 47.4655V9.53446C19.9658 9.28296 20.0657 9.04176 20.2436 8.86393C20.4214 8.68609 20.6626 8.58618 20.9141 8.58618H47.4658C47.7173 8.58618 47.9585 8.68609 48.1364 8.86393C48.3142 9.04176 48.4141 9.28296 48.4141 9.53446V47.4655C48.4141 47.717 48.3142 47.9582 48.1364 48.136C47.9585 48.3139 47.7173 48.4138 47.4658 48.4138ZM21.8624 46.5172H46.5175V10.4827H21.8624V46.5172Z" fill="black" stroke="black" stroke-width="0.7"/>
    <path d="M32.2931 31.3449C30.2241 31.3673 28.2199 30.6243 26.6655 29.2587C25.4282 28.1591 23.8305 27.5518 22.1753 27.5519C20.5201 27.552 18.9224 28.1595 17.6853 29.2592C16.1311 30.6243 14.1274 31.3672 12.0589 31.3449C9.99084 31.367 7.98758 30.624 6.43409 29.2587C5.20976 28.1409 3.60603 27.5306 1.94828 27.5518C1.69678 27.5518 1.45558 27.4519 1.27774 27.2741C1.09991 27.0962 1 26.855 1 26.6035C1 26.352 1.09991 26.1108 1.27774 25.933C1.45558 25.7552 1.69678 25.6553 1.94828 25.6553C4.01633 25.6332 6.01958 26.3762 7.57307 27.7415C8.79741 28.8593 10.4011 29.4695 12.0589 29.4484C13.7178 29.4697 15.3227 28.8595 16.5484 27.7415C18.1142 26.3955 20.1107 25.6553 22.1755 25.6553C24.2404 25.6553 26.2368 26.3955 27.8026 27.7415C29.0287 28.8595 30.6339 29.4697 32.2931 29.4484C32.5446 29.4484 32.7858 29.5483 32.9636 29.7261C33.1415 29.9039 33.2414 30.1451 33.2414 30.3966C33.2414 30.6481 33.1415 30.8893 32.9636 31.0672C32.7858 31.245 32.5446 31.3449 32.2931 31.3449Z" fill="black" stroke="black" stroke-width="0.7"/>
    <path d="M32.2931 21.862C30.2241 21.8844 28.2199 21.1414 26.6655 19.7758C25.4283 18.6761 23.8306 18.0687 22.1754 18.0687C20.5201 18.0687 18.9225 18.6761 17.6853 19.7758C16.1312 21.1411 14.1274 21.8841 12.0589 21.862C9.99084 21.8841 7.98758 21.1411 6.43409 19.7758C5.20976 18.6579 3.60603 18.0477 1.94828 18.0689C1.69678 18.0689 1.45558 17.969 1.27774 17.7912C1.09991 17.6133 1 17.3721 1 17.1206C1 16.8691 1.09991 16.6279 1.27774 16.4501C1.45558 16.2723 1.69678 16.1724 1.94828 16.1724C4.01633 16.1503 6.01958 16.8933 7.57307 18.2586C8.79741 19.3764 10.4011 19.9866 12.0589 19.9655C13.7178 19.9868 15.3227 19.3766 16.5484 18.2586C18.1142 16.9125 20.1107 16.1724 22.1755 16.1724C24.2404 16.1724 26.2368 16.9125 27.8026 18.2586C29.0287 19.3766 30.6339 19.9868 32.2931 19.9655C32.5446 19.9655 32.7858 20.0654 32.9636 20.2432C33.1415 20.421 33.2414 20.6622 33.2414 20.9137C33.2414 21.1652 33.1415 21.4064 32.9636 21.5843C32.7858 21.7621 32.5446 21.862 32.2931 21.862Z" fill="black" stroke="black" stroke-width="0.7"/>
    <path d="M32.2931 40.8276C30.2241 40.85 28.2199 40.107 26.6655 38.7414C25.4282 37.6418 23.8305 37.0345 22.1753 37.0345C20.5201 37.0346 18.9224 37.6421 17.6853 38.7419C16.1311 40.107 14.1274 40.8498 12.0589 40.8276C9.99084 40.8497 7.98758 40.1067 6.43409 38.7414C5.20976 37.6235 3.60603 37.0133 1.94828 37.0345C1.69678 37.0345 1.45558 36.9346 1.27774 36.7567C1.09991 36.5789 1 36.3377 1 36.0862C1 35.8347 1.09991 35.5935 1.27774 35.4157C1.45558 35.2378 1.69678 35.1379 1.94828 35.1379C4.01633 35.1159 6.01958 35.8589 7.57307 37.2241C8.79741 38.342 10.4011 38.9522 12.0589 38.931C13.7178 38.9524 15.3227 38.3422 16.5484 37.2241C18.1142 35.8781 20.1107 35.138 22.1755 35.138C24.2404 35.138 26.2368 35.8781 27.8026 37.2241C29.0287 38.3422 30.6339 38.9523 32.2931 38.931C32.5446 38.931 32.7858 39.0309 32.9636 39.2088C33.1415 39.3866 33.2414 39.6278 33.2414 39.8793C33.2414 40.1308 33.1415 40.372 32.9636 40.5498C32.7858 40.7277 32.5446 40.8276 32.2931 40.8276Z" fill="black" stroke="black" stroke-width="0.7"/>
</svg>
