<svg width="16" height="21" viewBox="0 0 16 21" fill="none" xmlns="http://www.w3.org/2000/svg">
<path d="M4.5002 2.87085H10.8617C10.8085 2.28851 10.539 1.74726 10.1063 1.35391C9.67361 0.960558 9.1092 0.743693 8.52444 0.746114H6.39971C5.81496 0.743693 5.25054 0.960558 4.81786 1.35391C4.38517 1.74726 4.11565 2.28851 4.0625 2.87085H4.48745H4.5002Z" fill="#827E7E"/>
<path d="M8.94957 18.8087C8.44977 17.9837 8.29179 16.9961 8.50926 16.0564C8.72674 15.1166 9.3025 14.2989 10.1139 13.7773L10.4369 7.97253C10.44 7.91618 10.4653 7.86337 10.5074 7.82571C10.5494 7.78806 10.6047 7.76865 10.661 7.77175C10.7174 7.77485 10.7702 7.8002 10.8079 7.84224C10.8455 7.88428 10.8649 7.93955 10.8618 7.99591L10.5431 13.5351C11.2793 13.1843 12.1113 13.0886 12.908 13.2631C12.9781 13.278 13.0482 13.2992 13.1204 13.3184C13.1927 13.3375 13.2607 13.3587 13.3329 13.3821L14.0319 5.42285H0.892578L1.98257 17.6847C2.02036 18.1089 2.21599 18.5034 2.53076 18.7902C2.84553 19.0771 3.2565 19.2353 3.68236 19.2336H9.23429C9.17692 19.1656 9.12593 19.0934 9.07493 19.0212C9.02394 18.9489 8.98144 18.8809 8.94957 18.8087ZM4.7341 15.9934C4.67989 15.9935 4.62769 15.9729 4.58819 15.9358C4.54869 15.8986 4.52488 15.8478 4.52163 15.7937L4.06268 7.99591C4.05958 7.93955 4.079 7.88428 4.11665 7.84224C4.15431 7.8002 4.20712 7.77485 4.26347 7.77175C4.31982 7.76865 4.3751 7.78806 4.41713 7.82571C4.45917 7.86337 4.48453 7.91618 4.48763 7.97253L4.93595 15.7703C4.93738 15.7982 4.93329 15.8261 4.92391 15.8525C4.91454 15.8788 4.90006 15.903 4.88131 15.9237C4.86256 15.9445 4.83991 15.9613 4.81465 15.9732C4.78938 15.9852 4.76201 15.992 4.7341 15.9934ZM7.67473 16.6011C7.67473 16.6574 7.65235 16.7115 7.6125 16.7513C7.57265 16.7912 7.51861 16.8136 7.46226 16.8136C7.40591 16.8136 7.35186 16.7912 7.31202 16.7513C7.27217 16.7115 7.24979 16.6574 7.24979 16.6011V7.16513C7.24979 7.10878 7.27217 7.05474 7.31202 7.01489C7.35186 6.97505 7.40591 6.95266 7.46226 6.95266C7.51861 6.95266 7.57265 6.97505 7.6125 7.01489C7.65235 7.05474 7.67473 7.10878 7.67473 7.16513V16.6011Z" fill="#827E7E"/>
<path d="M14.0764 4.99724C14.3018 4.99724 14.518 4.9077 14.6773 4.74831C14.8367 4.58893 14.9263 4.37275 14.9263 4.14735C14.9263 3.92194 14.8367 3.70577 14.6773 3.54638C14.518 3.387 14.3018 3.29745 14.0764 3.29745H0.849894C0.624488 3.29745 0.408314 3.387 0.248928 3.54638C0.0895421 3.70577 0 3.92194 0 4.14735C0 4.37275 0.0895421 4.58893 0.248928 4.74831C0.408314 4.9077 0.624488 4.99724 0.849894 4.99724H14.0764Z" fill="#827E7E"/>
<path d="M13.2868 13.8183C13.2188 13.7928 13.1508 13.7652 13.0743 13.7439C12.9979 13.7227 12.9341 13.7078 12.8619 13.6908C12.6169 13.6319 12.3659 13.6019 12.114 13.6016C11.5508 13.6022 10.9974 13.7486 10.5077 14.0265C10.4333 14.069 10.3589 14.1136 10.2952 14.1604C10.2315 14.2071 10.1443 14.2687 10.0827 14.3261C9.41966 14.848 8.98338 15.6055 8.86466 16.4409C8.74593 17.2764 8.9539 18.1254 9.4453 18.8114C9.49842 18.8837 9.55154 18.9559 9.61103 19.0239C9.67052 19.0919 9.73639 19.1684 9.80438 19.2364C10.1529 19.5806 10.5739 19.8426 11.0366 20.0034C11.4993 20.1642 11.9921 20.2197 12.479 20.1658C12.9658 20.112 13.4346 19.9501 13.8509 19.692C14.2673 19.4339 14.6208 19.0862 14.8856 18.6741C15.1505 18.262 15.32 17.796 15.3819 17.3101C15.4437 16.8242 15.3963 16.3306 15.2431 15.8653C15.0899 15.4 14.8348 14.9748 14.4964 14.6207C14.1579 14.2665 13.7447 13.9924 13.2868 13.8183ZM12.5729 17.0458L12.7684 17.2412L12.966 17.4367L13.5588 18.0316C13.5984 18.0714 13.6206 18.1253 13.6206 18.1814C13.6206 18.2376 13.5984 18.2914 13.5588 18.3312C13.5389 18.3509 13.5154 18.3665 13.4895 18.3771C13.4636 18.3876 13.4359 18.393 13.4079 18.3928C13.38 18.393 13.3522 18.3876 13.3264 18.3771C13.3005 18.3665 13.2769 18.3509 13.2571 18.3312L12.8937 17.9573L12.7153 17.7788L12.524 17.5897L12.1225 17.186L10.9857 18.3227C10.9459 18.3623 10.8921 18.3845 10.8359 18.3845C10.7798 18.3845 10.726 18.3623 10.6861 18.3227C10.6466 18.2829 10.6244 18.2291 10.6244 18.1729C10.6244 18.1168 10.6466 18.0629 10.6861 18.0231L11.8208 16.8949L10.6861 15.7582C10.6639 15.7391 10.6458 15.7157 10.6331 15.6893C10.6203 15.663 10.6132 15.6342 10.612 15.605C10.6109 15.5757 10.6158 15.5465 10.6265 15.5193C10.6372 15.492 10.6534 15.4673 10.6741 15.4465C10.6948 15.4258 10.7196 15.4096 10.7468 15.399C10.7741 15.3883 10.8033 15.3833 10.8326 15.3845C10.8618 15.3856 10.8905 15.3928 10.9169 15.4055C10.9432 15.4183 10.9667 15.4363 10.9857 15.4586L12.1225 16.5953L12.6622 16.0556L12.8959 15.8219L13.1296 15.5861L13.2571 15.4586C13.2768 15.4387 13.3003 15.4229 13.3262 15.4121C13.3521 15.4013 13.3799 15.3957 13.4079 15.3957C13.436 15.3957 13.4638 15.4013 13.4896 15.4121C13.5155 15.4229 13.539 15.4387 13.5588 15.4586C13.5984 15.4984 13.6206 15.5522 13.6206 15.6084C13.6206 15.6645 13.5984 15.7184 13.5588 15.7582L13.0701 16.2575L12.8364 16.4912L12.6027 16.7249L12.4221 16.9055L12.5729 17.0458Z" fill="#827E7E"/>
</svg>
