<svg width="47" height="36" viewBox="0 0 47 36" fill="none" xmlns="http://www.w3.org/2000/svg">
    <path d="M32.6228 17.0414L18.8797 9.24525C18.5381 9.05146 18.1183 9.05369 17.7789 9.25194C17.4395 9.44795 17.2296 9.81103 17.2296 10.2031V25.7953C17.2296 26.1873 17.4395 26.5504 17.7789 26.7486C17.9508 26.8488 18.1428 26.8978 18.3349 26.8978C18.5224 26.8978 18.7122 26.8511 18.8819 26.7531L32.625 18.957C32.9711 18.7609 33.1832 18.3956 33.1832 17.9992C33.1832 17.6027 32.9689 17.2374 32.6228 17.0414ZM19.4401 23.8997V12.0986L29.8429 17.9992L19.4401 23.8997Z" fill="#F5F5F5"/>
    <path d="M45.8902 0.363281H40.3729H34.8555H29.3382H23.8901H23.8209H18.3727H12.8599H7.34476H1.82742C1.21786 0.363281 0.722168 0.857777 0.722168 1.46587V6.9766V29.024V34.5369C0.722168 35.145 1.21786 35.6395 1.82742 35.6395H2.28962H7.34253H12.8599H18.3772H23.8253H23.8946H29.3427H34.86H40.3774H45.8947C46.5043 35.6395 47 35.145 47 34.5369V29.024V6.9766V1.46587C46.9955 0.85555 46.4998 0.363281 45.8902 0.363281ZM35.963 2.56624H39.2699V5.87401H35.963V2.56624ZM30.4457 2.56624H33.7525V5.87401H30.4457V2.56624ZM24.9976 2.56624H28.2352V5.87401H24.9976V2.56624ZM19.4825 2.56624H22.7201V5.87401H19.4825V2.56624ZM13.9651 2.56624H17.272V5.87401H13.9651V2.56624ZM8.44778 2.56624H11.7546V5.87401H8.44778V2.56624ZM2.93268 2.56624H6.23951V5.87401H2.93268V2.56624ZM6.23951 33.4343H2.93268V30.1266H6.23951V33.4343ZM11.7546 33.4343H8.44778V30.1266H11.7546V33.4343ZM17.272 33.4343H13.9651V30.1266H17.272V33.4343ZM22.7201 33.4343H19.4825V30.1266H22.7201V33.4343ZM28.2352 33.4343H24.9976V30.1266H28.2352V33.4343ZM33.7525 33.4343H30.4457V30.1266H33.7525V33.4343ZM39.2699 33.4343H35.963V30.1266H39.2699V33.4343ZM44.785 33.4343H41.4781V30.1266H44.785V33.4343ZM44.785 27.9214H40.3729H34.8555H29.3382H23.8901H23.8209H18.3727H12.8599H7.34476H2.93268V8.07919H7.34476H12.8621H18.3794H23.8276H23.8968H29.3449H34.8622H40.3796H44.7917V27.9214H44.785ZM44.785 5.87401H41.4781V2.56624H44.785V5.87401Z" fill="#F5F5F5"/>
</svg>
