<svg width="45" height="55" viewBox="0 0 45 55" fill="none" xmlns="http://www.w3.org/2000/svg">
    <path d="M9.64286 9.70588V6.46427C9.64286 2.89045 12.5168 0 16.0757 0H38.5671C42.1168 0 45 2.89984 45 6.4654V38.8287C45 42.4031 42.1261 45.2941 38.5671 45.2941H35.3571V48.5346C35.3571 52.1089 32.4833 55 28.9243 55H6.43285C2.88229 55 0 52.1032 0 48.5357V16.1702C0 12.5963 2.87393 9.70588 6.43285 9.70588H9.64286ZM32.1429 48.5346V16.1713C32.1429 14.3931 30.6993 12.9412 28.9243 12.9412H6.43285C4.64857 12.9412 3.21429 14.3837 3.21429 16.1702V48.5357C3.21429 50.3153 4.65641 51.7647 6.43285 51.7647H28.9243C30.7085 51.7647 32.1429 50.3217 32.1429 48.5346ZM35.3571 42.0588H38.5671C40.3513 42.0588 41.7857 40.6159 41.7857 38.8287V6.4654C41.7857 4.68721 40.3421 3.23529 38.5671 3.23529H16.0757C14.2914 3.23529 12.8571 4.67782 12.8571 6.46427V9.70588H28.9243C32.4739 9.70588 35.3571 12.6057 35.3571 16.1713V42.0588ZM17.6786 33.9706C13.6844 33.9706 10.4464 30.7115 10.4464 26.6912C10.4464 22.6709 13.6844 19.4118 17.6786 19.4118C21.6728 19.4118 24.9107 22.6709 24.9107 26.6912C24.9107 30.7115 21.6728 33.9706 17.6786 33.9706ZM17.6786 30.7353C19.8976 30.7353 21.6964 28.9247 21.6964 26.6912C21.6964 24.4577 19.8976 22.6471 17.6786 22.6471C15.4596 22.6471 13.6607 24.4577 13.6607 26.6912C13.6607 28.9247 15.4596 30.7353 17.6786 30.7353ZM9.64286 40.4412C8.75526 40.4412 8.03571 39.7169 8.03571 38.8235C8.03571 37.9301 8.75526 37.2059 9.64286 37.2059H25.7143C26.6019 37.2059 27.3214 37.9301 27.3214 38.8235C27.3214 39.7169 26.6019 40.4412 25.7143 40.4412H9.64286ZM13.6607 46.9118C12.7731 46.9118 12.0536 46.1875 12.0536 45.2941C12.0536 44.4007 12.7731 43.6765 13.6607 43.6765H21.6964C22.584 43.6765 23.3036 44.4007 23.3036 45.2941C23.3036 46.1875 22.584 46.9118 21.6964 46.9118H13.6607Z" fill="white"/>
</svg>
