<svg width="22" height="11" viewBox="0 0 22 11" fill="none" xmlns="http://www.w3.org/2000/svg">
<path fill-rule="evenodd" clip-rule="evenodd" d="M20.8254 5.9098C20.6262 6.10898 16.1557 10.8008 10.5123 10.8008C4.86885 10.8008 0.398361 6.10898 0.19918 5.9098C-0.0663935 5.62209 -0.0663935 5.17947 0.19918 4.89176C0.398361 4.69258 4.86885 0.000778198 10.5123 0.000778198C16.1557 0.000778198 20.6262 4.69258 20.8254 4.89176C21.091 5.17947 21.091 5.62209 20.8254 5.9098ZM10.5123 1.48357C6.55082 1.48357 3.09836 4.22783 1.81475 5.40078C3.09836 6.57373 6.52869 9.31799 10.5123 9.31799C14.4738 9.31799 17.9262 6.57373 19.2098 5.40078C17.9262 4.22783 14.4959 1.48357 10.5123 1.48357Z" fill="white"/>
<path d="M10.5125 2.76794C11.967 2.76794 13.1461 3.94705 13.1461 5.40155C13.1461 6.85605 11.967 8.03516 10.5125 8.03516C9.05801 8.03516 7.87891 6.85605 7.87891 5.40155C7.87891 3.94705 9.05801 2.76794 10.5125 2.76794Z" fill="white"/>
</svg>
