<svg xmlns="http://www.w3.org/2000/svg" width="45" height="45" viewBox="0 0 45 45" fill="none">
    <path d="M42.8056 17.7222H39.2222V9.36111C39.2222 9.04434 39.0961 8.74048 38.8725 8.5164L31.7058 1.34973C31.4817 1.12613 31.1779 1 30.8611 1H6.97222C6.31241 1 5.77778 1.53463 5.77778 2.19444V17.7222H2.19444C1.53463 17.7222 1 18.2569 1 18.9167V35.6389C1 36.2987 1.53463 36.8333 2.19444 36.8333H5.77778V42.8056C5.77778 43.4654 6.31241 44 6.97222 44H38.0278C38.6876 44 39.2222 43.4654 39.2222 42.8056V36.8333H42.8056C43.4654 36.8333 44 36.2987 44 35.6389V18.9167C44 18.2569 43.4654 17.7222 42.8056 17.7222ZM32.0556 5.07783L35.1444 8.16667H32.0556V5.07783ZM8.16667 3.38889H29.6667V10.5556H36.8333V17.7222H8.16667V3.38889ZM36.8333 41.6111H8.16667V36.8333H36.8333V41.6111ZM41.6111 34.4444H3.38889V20.1111H41.6111V34.4444Z" fill="black" stroke="white" stroke-width="0.5"/>
    <path d="M9.36109 30.8611C9.36109 29.9533 9.81307 29.1292 10.5555 28.6385C11.2985 29.1301 11.75 29.9538 11.75 30.8611V32.0556H14.1389V30.8611C14.1389 29.4832 13.5842 28.2109 12.642 27.2778C13.5837 26.3452 14.1389 25.0724 14.1389 23.6944V22.5H11.75V23.6944C11.75 24.6022 11.298 25.4264 10.5555 25.9171C9.81259 25.4254 9.36109 24.6017 9.36109 23.6944V22.5H6.9722V23.6944C6.9722 25.0724 7.5269 26.3447 8.46908 27.2778C7.52738 28.2104 6.9722 29.4832 6.9722 30.8611V32.0556H9.36109V30.8611Z" fill="black" stroke="white" stroke-width="0.5"/>
    <path d="M21.3056 29.6667H17.7223V22.5H15.3334V32.0556H21.3056V29.6667Z" fill="black" stroke="white" stroke-width="0.5"/>
    <path d="M29.6667 28.4722C29.6667 27.155 28.595 26.0833 27.2778 26.0833H24.8889C24.8889 25.4245 25.4245 24.8889 26.0833 24.8889H29.6667V22.5H26.0833C24.1072 22.5 22.5 24.1072 22.5 26.0833C22.5 27.4006 23.5717 28.4722 24.8889 28.4722H27.2778C27.2778 29.1311 26.7422 29.6667 26.0833 29.6667H22.5V32.0556H26.0833C28.0594 32.0556 29.6667 30.4483 29.6667 28.4722Z" fill="black" stroke="white" stroke-width="0.5"/>
    <path d="M33.25 30.8611C33.25 29.9533 33.702 29.1292 34.4445 28.6385C35.1874 29.1301 35.6389 29.9538 35.6389 30.8611V32.0556H38.0278V30.8611C38.0278 29.4832 37.4731 28.2109 36.5309 27.2778C37.4726 26.3452 38.0278 25.0724 38.0278 23.6944V22.5H35.6389V23.6944C35.6389 24.6022 35.1869 25.4264 34.4445 25.9171C33.7015 25.4254 33.25 24.6017 33.25 23.6944V22.5H30.8611V23.6944C30.8611 25.0724 31.4158 26.3447 32.358 27.2778C31.4163 28.2104 30.8611 29.4832 30.8611 30.8611V32.0556H33.25V30.8611Z" fill="black" stroke="white" stroke-width="0.5"/>
</svg>
